<svg width="153" height="140" viewBox="0 0 153 140" fill="none" xmlns="http://www.w3.org/2000/svg">
<mask id="mask0_788_1500" style="mask-type:luminance" maskUnits="userSpaceOnUse" x="0" y="0" width="153" height="140">
<path d="M153 0H0V140H153V0Z" fill="white"/>
</mask>
<g mask="url(#mask0_788_1500)">
<path d="M70.309 63.9038C71.1873 63.2662 72.6249 63.2662 73.5039 63.9038L120.698 98.1636C121.577 98.8017 121.577 99.8452 120.698 100.483L89.4163 123.191C88.5378 123.829 87.1 123.828 86.221 123.191L39.0262 88.9323C38.1475 88.2942 38.1475 87.2501 39.0262 86.6125L70.309 63.9038Z" fill="#E2DEF7"/>
<path d="M121.357 99.3235L121.357 101.615C121.367 102.045 121.147 102.477 120.698 102.802L89.4159 125.51C88.5374 126.148 87.0995 126.149 86.2208 125.511L39.026 91.2512C38.5869 90.933 38.3674 90.5127 38.3672 90.093L38.3683 87.8207C38.3678 87.8126 38.3689 87.8044 38.3689 87.7968C38.3769 88.2087 38.5953 88.6192 39.026 88.932L86.2208 123.191C87.0995 123.828 88.5374 123.828 89.4159 123.191L120.698 100.483C121.142 100.161 121.362 99.7356 121.357 99.3107V99.3235Z" fill="#C5BCD5"/>
<path d="M71.7897 14.9485C71.7897 13.6728 72.5083 13.1513 73.3868 13.7889L120.582 48.0471C121.461 48.685 122.181 50.2502 122.181 51.5257L122.18 96.9416C122.18 98.2171 121.461 98.7391 120.582 98.1015L73.3864 63.8427C72.5081 63.2048 71.7891 61.6393 71.7891 60.3639L71.7897 14.9485Z" fill="#C5BCD5"/>
<path d="M119.302 93.9264C119.653 94.1815 119.94 93.9731 119.94 93.4628L119.941 51.7582C119.941 51.2476 119.653 50.6217 119.302 50.3666L74.6628 17.964C74.3109 17.7089 74.0237 17.9173 74.0237 18.4276L74.0234 60.1319C74.0234 60.6423 74.3107 61.2685 74.6622 61.5235L119.302 93.9264Z" fill="#F0ECFB"/>
<path d="M54.754 79.4676C54.5775 79.5946 54.5766 79.8035 54.7525 79.9308L98.5424 111.718C98.7181 111.846 99.0062 111.847 99.1827 111.719L116.669 99.1344C116.845 99.0077 116.846 98.7996 116.67 98.6715L72.8801 66.8837C72.7044 66.7559 72.4163 66.7553 72.24 66.8826L54.754 79.4676Z" fill="#C5BCD5"/>
<path d="M56.9953 99.0807C56.8194 99.2082 56.8192 99.4168 56.9953 99.5446L71.5991 110.146C71.7748 110.273 72.0624 110.273 72.2381 110.146L82.8648 102.432C83.04 102.305 83.04 102.096 82.8648 101.968L68.2603 91.3671C68.0846 91.2393 67.797 91.2393 67.6213 91.3666L56.9953 99.0807Z" fill="#D5D1EA"/>
<path d="M122.18 96.9416L122.181 51.526C122.181 50.2508 121.462 48.685 120.583 48.0471L73.3877 13.7892C72.9665 13.4837 72.5832 13.4468 72.2969 13.6294C72.3018 13.6261 72.3057 13.6218 72.3107 13.6188L73.5662 12.711C73.8532 12.5202 74.2419 12.556 74.6678 12.8656L121.864 47.1241C122.742 47.7617 123.461 49.3272 123.461 50.603L123.461 96.0188C123.461 96.6556 123.281 97.1036 122.993 97.3133L121.72 98.2317C122.004 98.0187 122.18 97.5724 122.18 96.9416Z" fill="#E2DEF7"/>
<path d="M70.7922 72.5344C70.6169 72.6616 70.3301 72.6619 70.1547 72.5344L68.2136 71.1254C68.0382 70.9979 68.0382 70.7898 68.2136 70.6626L70.1547 69.2533C70.3301 69.1261 70.6169 69.1261 70.7922 69.2533L72.733 70.6623C72.9087 70.7898 72.9087 70.9979 72.733 71.1254L70.7922 72.5344Z" fill="#E2DEF7"/>
<path d="M73.7609 74.6906C73.5857 74.8175 73.2989 74.8175 73.1237 74.6903L71.1824 73.2813C71.0069 73.1538 71.0069 72.9457 71.1824 72.8187L73.1237 71.4095C73.2989 71.2823 73.5857 71.2823 73.7609 71.4095L75.7018 72.8185C75.8775 72.9457 75.8775 73.1538 75.702 73.2813L73.7609 74.6906Z" fill="#E2DEF7"/>
<path d="M76.7335 76.8462C76.558 76.9737 76.271 76.9737 76.0956 76.8462L74.1547 75.4372C73.9797 75.3102 73.9797 75.1021 74.1547 74.9752L76.096 73.5651C76.2712 73.4381 76.558 73.4381 76.7335 73.5651L78.6739 74.9749C78.8498 75.1021 78.85 75.3102 78.6743 75.4372L76.7335 76.8462Z" fill="#E2DEF7"/>
<path d="M79.7025 79.0023C79.5273 79.1296 79.2399 79.1296 79.0646 79.0023L77.1238 77.5934C76.9483 77.4661 76.9483 77.2578 77.1238 77.1308L79.0649 75.7216C79.2399 75.594 79.5273 75.594 79.7025 75.7216L81.6434 77.1308C81.8189 77.2578 81.8189 77.4661 81.6434 77.5934L79.7025 79.0023Z" fill="#E2DEF7"/>
<path d="M82.6714 81.1588C82.496 81.286 82.2087 81.286 82.0335 81.1585L80.0922 79.7495C79.9172 79.6226 79.9172 79.4139 80.0922 79.2869L82.0335 77.8777C82.2087 77.7502 82.496 77.7502 82.6714 77.8777L84.6121 79.2869C84.7875 79.4139 84.7877 79.6223 84.6125 79.7495L82.6714 81.1588Z" fill="#E2DEF7"/>
<path d="M85.6434 83.3147C85.4681 83.4419 85.1811 83.4419 85.0059 83.3147L83.065 81.906C82.8898 81.7787 82.8898 81.5704 83.065 81.4431L85.0063 80.0339C85.1811 79.9064 85.4681 79.9064 85.6434 80.0339L87.5844 81.4428C87.7601 81.5701 87.7601 81.7787 87.5844 81.906L85.6434 83.3147Z" fill="#E2DEF7"/>
<path d="M88.6125 85.4711C88.437 85.5983 88.15 85.5983 87.9748 85.4711L86.0341 84.0619C85.8585 83.9346 85.8585 83.7263 86.0339 83.5993L87.975 82.1898C88.15 82.0625 88.437 82.0625 88.6125 82.1898L90.5533 83.5993C90.729 83.7263 90.729 83.9346 90.5535 84.0619L88.6125 85.4711Z" fill="#E2DEF7"/>
<path d="M91.5848 87.6273C91.4096 87.7545 91.1226 87.7545 90.9474 87.6273L89.0067 86.2183C88.8313 86.0911 88.8311 85.8824 89.0063 85.7554L90.9476 84.3462C91.1224 84.219 91.4096 84.219 91.5848 84.3465L93.5257 85.7554C93.7016 85.8827 93.7016 86.0911 93.5259 86.2183L91.5848 87.6273Z" fill="#E2DEF7"/>
<path d="M94.5539 89.7829C94.3784 89.9101 94.0916 89.9101 93.9164 89.7829L91.9755 88.3742C91.7999 88.2467 91.7999 88.0383 91.9753 87.9113L93.9166 86.5021C94.0916 86.3748 94.3784 86.3748 94.5539 86.5024L96.4947 87.9113C96.6702 88.0383 96.6702 88.2467 96.4947 88.3742L94.5539 89.7829Z" fill="#E2DEF7"/>
<path d="M97.5225 91.9393C97.3473 92.0666 97.0602 92.0666 96.8848 91.939L94.9439 90.5304C94.7687 90.4031 94.7687 90.1947 94.9439 90.0675L96.8848 88.6585C97.0602 88.5313 97.3473 88.5313 97.5225 88.6585L99.4634 90.0675C99.6388 90.1947 99.6388 90.4031 99.4634 90.5304L97.5225 91.9393Z" fill="#E2DEF7"/>
<path d="M100.495 94.0952C100.32 94.2227 100.033 94.2227 99.8576 94.0952L97.9167 92.6865C97.7413 92.559 97.7413 92.3506 97.9167 92.2237L99.8576 90.8144C100.033 90.6869 100.32 90.6869 100.495 90.8144L102.436 92.2237C102.612 92.3506 102.612 92.559 102.436 92.6862L100.495 94.0952Z" fill="#E2DEF7"/>
<path d="M103.465 96.2516C103.289 96.3789 103.002 96.3789 102.827 96.2514L100.886 94.8427C100.71 94.7154 100.71 94.5065 100.885 94.3798L102.827 92.9706C103.002 92.8431 103.289 92.8431 103.465 92.9706L105.405 94.3798C105.581 94.5068 105.581 94.7154 105.405 94.8427L103.465 96.2516Z" fill="#E2DEF7"/>
<path d="M106.433 98.4073C106.257 98.5348 105.97 98.5348 105.795 98.4073L103.854 96.9983C103.679 96.8711 103.679 96.6627 103.854 96.5357L105.795 95.1265C105.97 94.999 106.257 94.999 106.433 95.1265L108.374 96.5357C108.549 96.6627 108.549 96.8711 108.374 96.9986L106.433 98.4073Z" fill="#E2DEF7"/>
<path d="M73.8224 70.4705C73.647 70.598 73.3604 70.598 73.185 70.4705L71.1511 68.994C70.9756 68.8667 70.9756 68.6583 71.1513 68.5311L72.0141 67.9046C72.1893 67.7774 72.4763 67.7774 72.6513 67.9046L74.6854 69.3811C74.8609 69.5084 74.8609 69.7167 74.6854 69.844L73.8224 70.4705Z" fill="#E2DEF7"/>
<path d="M76.8967 72.704C76.7214 72.8315 76.4344 72.8315 76.2592 72.704L74.2251 71.228C74.0501 71.1007 74.0499 70.8924 74.2251 70.7651L75.0883 70.1384C75.2635 70.0111 75.5501 70.0111 75.7255 70.1384L77.7598 71.6152C77.9351 71.7424 77.9351 71.9508 77.7598 72.0778L76.8967 72.704Z" fill="#E2DEF7"/>
<path d="M79.9751 74.9377C79.7994 75.0655 79.5126 75.0655 79.3372 74.9377L77.3033 73.4615C77.1281 73.3342 77.1281 73.1259 77.3033 72.9986L78.1663 72.3721C78.3415 72.2449 78.6283 72.2449 78.8037 72.3721L80.8376 73.8487C81.0131 73.9759 81.0131 74.184 80.8378 74.3112L79.9751 74.9377Z" fill="#E2DEF7"/>
<path d="M83.053 77.1718C82.8776 77.2993 82.5904 77.2993 82.4149 77.1718L80.3813 75.6955C80.2062 75.5683 80.2062 75.3594 80.3813 75.2326L81.2442 74.6062C81.4197 74.4787 81.7065 74.4787 81.8819 74.6064L83.9156 76.0827C84.0912 76.2099 84.0912 76.4183 83.9156 76.5453L83.053 77.1718Z" fill="#E2DEF7"/>
<path d="M86.1309 79.4055C85.9557 79.5328 85.6687 79.5328 85.4936 79.4055L83.4595 77.9293C83.2845 77.8017 83.2841 77.5936 83.4595 77.4664L84.3225 76.8399C84.4982 76.7127 84.785 76.7127 84.96 76.8399L86.9941 78.3164C87.1693 78.4434 87.1693 78.6521 86.9941 78.7788L86.1309 79.4055Z" fill="#E2DEF7"/>
<path d="M89.2055 81.6393C89.03 81.7665 88.743 81.7665 88.5678 81.6393L86.5339 80.1628C86.3585 80.0355 86.3585 79.8277 86.5339 79.7004L87.3969 79.0737C87.5719 78.9462 87.8589 78.9462 88.0344 79.0737L90.0685 80.5502C90.2437 80.6774 90.2437 80.8855 90.0685 81.0128L89.2055 81.6393Z" fill="#E2DEF7"/>
<path d="M92.2834 83.8733C92.1082 84.0005 91.8212 84.0005 91.6462 83.8733L89.6121 82.3968C89.4366 82.2695 89.4366 82.0612 89.6121 81.9339L90.4748 81.3077C90.6505 81.1802 90.9373 81.1802 91.1127 81.3077L93.1462 82.784C93.3218 82.9112 93.3218 83.1196 93.1464 83.2466L92.2834 83.8733Z" fill="#E2DEF7"/>
<path d="M95.3617 86.1071C95.1865 86.2343 94.8992 86.2343 94.7236 86.1071L92.6903 84.6305C92.5147 84.5033 92.5147 84.2949 92.6903 84.1677L93.5533 83.5415C93.7285 83.414 94.0151 83.414 94.1906 83.5415L96.2244 85.0174C96.3999 85.145 96.3999 85.3531 96.2247 85.4803L95.3617 86.1071Z" fill="#E2DEF7"/>
<path d="M98.4395 88.3408C98.2643 88.4681 97.9773 88.4681 97.8023 88.3408L95.768 86.8646C95.593 86.7373 95.593 86.5287 95.768 86.402L96.6309 85.7752C96.8066 85.648 97.0932 85.648 97.2684 85.7752L99.3023 87.2517C99.478 87.379 99.478 87.5871 99.3025 87.7146L98.4395 88.3408Z" fill="#E2DEF7"/>
<path d="M101.518 90.5746C101.342 90.7021 101.055 90.7021 100.88 90.5746L98.8461 89.0983C98.6711 88.9708 98.6711 88.7627 98.8461 88.6358L99.7093 88.009C99.8843 87.882 100.171 87.8818 100.347 88.009L102.38 89.4858C102.556 89.613 102.556 89.8211 102.38 89.9481L101.518 90.5746Z" fill="#E2DEF7"/>
<path d="M104.592 92.8086C104.417 92.9361 104.13 92.9361 103.955 92.8086L101.921 91.3321C101.745 91.2048 101.745 90.9965 101.921 90.8695L102.783 90.243C102.959 90.1155 103.246 90.1155 103.421 90.243L105.455 91.7193C105.63 91.8465 105.63 92.0549 105.455 92.1821L104.592 92.8086Z" fill="#E2DEF7"/>
<path d="M107.67 95.0421C107.495 95.1696 107.208 95.1696 107.033 95.0421L104.999 93.5664C104.823 93.4386 104.823 93.2305 104.999 93.1033L105.861 92.4765C106.037 92.3493 106.324 92.3493 106.499 92.4765L108.533 93.9533C108.709 94.0805 108.709 94.2889 108.533 94.4159L107.67 95.0421Z" fill="#E2DEF7"/>
<path d="M110.749 97.2759C110.573 97.4034 110.286 97.4034 110.111 97.2759L108.077 95.7996C107.902 95.6721 107.902 95.4643 108.077 95.337L108.94 94.7103C109.115 94.583 109.402 94.583 109.577 94.7103L111.611 96.1865C111.787 96.314 111.787 96.5224 111.611 96.6497L110.749 97.2759Z" fill="#E2DEF7"/>
<path d="M113.834 99.5156C113.659 99.6431 113.372 99.6431 113.197 99.5161L111.163 98.0396C110.987 97.9121 110.987 97.7037 111.163 97.5768L112.026 96.95C112.201 96.8228 112.488 96.8228 112.663 96.9503L114.697 98.4268C114.873 98.5538 114.873 98.7621 114.697 98.8894L113.834 99.5156Z" fill="#E2DEF7"/>
<path d="M110.898 101.647C110.723 101.775 110.436 101.775 110.261 101.647L106.835 99.1604C106.659 99.0329 106.659 98.8248 106.835 98.6976L108.775 97.2889C108.951 97.1611 109.238 97.1611 109.413 97.2889L112.84 99.7758C113.015 99.9028 113.015 100.111 112.839 100.239L110.898 101.647Z" fill="#E2DEF7"/>
<path d="M58.8824 81.1791C58.7068 81.3066 58.4198 81.3066 58.2443 81.1791L56.3034 79.7702C56.128 79.6429 56.128 79.4345 56.3036 79.3073L58.2443 77.8983C58.4198 77.7708 58.7065 77.7708 58.8818 77.8983L60.8229 79.3073C60.9983 79.4345 60.9983 79.6429 60.8231 79.7702L58.8824 81.1791Z" fill="#E2DEF7"/>
<path d="M61.8546 83.335C61.6794 83.4625 61.3922 83.4625 61.2172 83.335L59.2761 81.9266C59.1006 81.7993 59.1006 81.5904 59.2763 81.4635L61.2172 80.0542C61.3922 79.927 61.6794 79.927 61.8544 80.0542L63.7953 81.4635C63.9712 81.5904 63.9712 81.7993 63.7957 81.9266L61.8546 83.335Z" fill="#E2DEF7"/>
<path d="M64.8238 85.4912C64.6484 85.6187 64.3613 85.6187 64.1857 85.4912L62.245 84.0825C62.0694 83.9552 62.0694 83.7469 62.245 83.6196L64.1857 82.2107C64.3613 82.0834 64.6481 82.0834 64.8232 82.2107L66.7642 83.6199C66.9397 83.7469 66.9397 83.9552 66.7645 84.0825L64.8238 85.4912Z" fill="#E2DEF7"/>
<path d="M97.5307 107.039C97.3555 107.166 97.0682 107.166 96.8932 107.039L94.9521 105.629C94.7763 105.502 94.7765 105.294 94.9521 105.167L95.4096 104.835C95.5849 104.707 95.8719 104.707 96.0473 104.835L97.9882 106.244C98.1634 106.371 98.1634 106.58 97.9882 106.707L97.5307 107.039Z" fill="#E2DEF7"/>
<path d="M93.046 105.98C92.8707 106.108 92.5837 106.108 92.4087 105.98L90.4678 104.572C90.292 104.444 90.292 104.236 90.4678 104.109L90.9249 103.777C91.1003 103.649 91.3874 103.649 91.5628 103.777L93.5037 105.185C93.6791 105.313 93.6791 105.521 93.5037 105.648L93.046 105.98Z" fill="#E2DEF7"/>
<path d="M96.0187 108.136C95.8432 108.263 95.5562 108.263 95.3805 108.136L93.4401 106.727C93.2647 106.6 93.2649 106.392 93.4401 106.265L93.8974 105.933C94.0726 105.805 94.3596 105.805 94.535 105.933L96.4761 107.341C96.6516 107.468 96.6516 107.677 96.4761 107.804L96.0187 108.136Z" fill="#E2DEF7"/>
<path d="M98.9873 110.292C98.8121 110.42 98.5249 110.42 98.3496 110.292L96.4088 108.883C96.2335 108.756 96.2335 108.547 96.4088 108.421L96.8663 108.088C97.0415 107.961 97.3285 107.961 97.5039 108.088L99.445 109.497C99.6203 109.625 99.6203 109.833 99.4448 109.96L98.9873 110.292Z" fill="#E2DEF7"/>
<path d="M67.7926 87.6473C67.6171 87.7746 67.3299 87.7746 67.1547 87.6473L65.2136 86.2384C65.0381 86.1114 65.0381 85.903 65.2138 85.7758L67.1547 84.3666C67.3299 84.2393 67.6169 84.2393 67.7921 84.3666L69.733 85.7758C69.9085 85.903 69.9085 86.1114 69.733 86.2384L67.7926 87.6473Z" fill="#E2DEF7"/>
<path d="M84.1433 99.5145C83.9678 99.642 83.6808 99.642 83.5052 99.5145L68.1866 88.3945C68.0107 88.2673 68.0107 88.0589 68.1866 87.9317L70.1277 86.5225C70.3029 86.3952 70.5897 86.3952 70.7649 86.5225L86.0837 97.643C86.2592 97.7699 86.2594 97.9783 86.0844 98.1058L84.1433 99.5145Z" fill="#E2DEF7"/>
<path d="M87.1047 101.665C86.9292 101.792 86.6424 101.792 86.4668 101.665L84.5261 100.256C84.3507 100.129 84.3507 99.9204 84.5261 99.7934L86.4668 98.3839C86.6424 98.2567 86.9292 98.2567 87.1047 98.3842L89.0453 99.7934C89.2208 99.9204 89.2208 100.129 89.0453 100.256L87.1047 101.665Z" fill="#E2DEF7"/>
<path d="M90.0732 103.821C89.8979 103.949 89.6109 103.949 89.4359 103.821L87.495 102.412C87.3194 102.285 87.3194 102.077 87.495 101.95L89.4359 100.54C89.6109 100.413 89.8979 100.413 90.0732 100.541L92.014 101.95C92.1897 102.077 92.1897 102.285 92.0142 102.412L90.0732 103.821Z" fill="#E2DEF7"/>
<path d="M72.284 77.9304C72.1088 78.0576 71.8217 78.0576 71.6467 77.9304L69.7056 76.5211C69.5304 76.3939 69.5304 76.1858 69.7056 76.0585L71.6467 74.6493C71.8217 74.5218 72.1088 74.5218 72.284 74.6493L74.2251 76.0583C74.4005 76.1858 74.4005 76.3939 74.2253 76.5211L72.284 77.9304Z" fill="#E2DEF7"/>
<path d="M69.3085 75.7682C69.1333 75.8955 68.8461 75.8955 68.6709 75.7682L65.2449 73.281C65.0694 73.1535 65.0694 72.946 65.2449 72.8187L67.186 71.4098C67.3614 71.2825 67.6482 71.2825 67.8232 71.4098L71.2496 73.8964C71.4246 74.0236 71.4246 74.232 71.2496 74.3593L69.3085 75.7682Z" fill="#E2DEF7"/>
<path d="M75.2531 80.0862C75.0779 80.2135 74.7909 80.2135 74.6154 80.0862L72.6746 78.6773C72.4991 78.5498 72.4991 78.3417 72.6746 78.2147L74.6154 76.8055C74.7909 76.678 75.0779 76.678 75.2531 76.8055L77.194 78.2144C77.3694 78.3417 77.3694 78.5498 77.1942 78.6773L75.2531 80.0862Z" fill="#E2DEF7"/>
<path d="M78.2258 82.2424C78.0505 82.3694 77.7631 82.3694 77.5879 82.2421L75.6472 80.8332C75.4718 80.7062 75.4718 80.4976 75.6472 80.3709L77.5879 78.9614C77.7631 78.8341 78.0505 78.8341 78.2258 78.9614L80.1664 80.3706C80.3417 80.4976 80.3417 80.7062 80.1664 80.8332L78.2258 82.2424Z" fill="#E2DEF7"/>
<path d="M81.1945 84.3986C81.0192 84.5261 80.732 84.5261 80.557 84.3983L78.6161 82.9896C78.4405 82.8624 78.4405 82.654 78.6161 82.527L80.557 81.1175C80.732 80.9903 81.0192 80.9903 81.1945 81.1175L83.1356 82.527C83.311 82.654 83.311 82.8624 83.1356 82.9896L81.1945 84.3986Z" fill="#E2DEF7"/>
<path d="M84.1674 86.5547C83.9919 86.682 83.7049 86.682 83.5297 86.5545L81.5886 85.1458C81.4132 85.0183 81.4132 84.8102 81.5886 84.6829L83.5297 83.2737C83.7049 83.1462 83.9919 83.1462 84.1674 83.2737L86.1083 84.6829C86.2837 84.8102 86.2837 85.0183 86.1083 85.1458L84.1674 86.5547Z" fill="#E2DEF7"/>
<path d="M87.1361 88.7106C86.9608 88.8381 86.6738 88.8381 86.4988 88.7106L84.5577 87.3022C84.3818 87.1747 84.3818 86.966 84.5575 86.8391L86.4988 85.4298C86.6738 85.3026 86.9608 85.3026 87.1361 85.4298L89.0769 86.8391C89.2528 86.966 89.2528 87.1744 89.0771 87.3017L87.1361 88.7106Z" fill="#E2DEF7"/>
<path d="M90.105 90.8671C89.9298 90.9943 89.6426 90.9943 89.4672 90.8671L87.5265 89.4581C87.3506 89.3309 87.3506 89.1225 87.5261 88.9952L89.4674 87.586C89.6426 87.4585 89.9298 87.4585 90.105 87.586L92.0457 88.9952C92.2214 89.1225 92.2214 89.3309 92.0457 89.4581L90.105 90.8671Z" fill="#E2DEF7"/>
<path d="M93.0771 93.0232C92.9018 93.1507 92.6148 93.1507 92.4396 93.0232L90.4989 91.6143C90.3233 91.487 90.3233 91.2784 90.4989 91.1514L92.4396 89.7425C92.6148 89.6149 92.9018 89.6149 93.0775 89.7425L95.0182 91.1514C95.1938 91.2784 95.1938 91.4868 95.0182 91.614L93.0771 93.0232Z" fill="#E2DEF7"/>
<path d="M96.0464 95.1791C95.871 95.3066 95.5839 95.3066 95.4087 95.1791L93.4678 93.7704C93.292 93.6429 93.292 93.4345 93.4678 93.3073L95.4087 91.8983C95.5839 91.7708 95.871 91.7708 96.0464 91.8983L97.9873 93.3073C98.1625 93.4345 98.1625 93.6429 97.9873 93.7702L96.0464 95.1791Z" fill="#E2DEF7"/>
<path d="M99.0187 97.335C98.8433 97.4625 98.5563 97.4625 98.3808 97.335L96.4402 95.9263C96.2647 95.7991 96.2647 95.5907 96.4402 95.4635L98.3808 94.0542C98.5563 93.927 98.8433 93.927 99.0187 94.0542L100.959 95.4635C101.135 95.5904 101.135 95.7988 100.959 95.9263L99.0187 97.335Z" fill="#E2DEF7"/>
<path d="M101.987 99.4912C101.812 99.619 101.525 99.619 101.35 99.4912L99.4089 98.0825C99.2335 97.9552 99.2335 97.7469 99.4089 97.6199L101.35 96.2104C101.525 96.0831 101.812 96.0831 101.988 96.2104L103.929 97.6199C104.104 97.7469 104.104 97.9552 103.929 98.0825L101.987 99.4912Z" fill="#E2DEF7"/>
<path d="M104.957 101.647C104.781 101.775 104.494 101.775 104.319 101.647L102.378 100.238C102.202 100.111 102.202 99.903 102.378 99.7761L104.319 98.3663C104.494 98.2388 104.781 98.2388 104.957 98.3663L106.898 99.7755C107.073 99.9025 107.073 100.111 106.897 100.238L104.957 101.647Z" fill="#E2DEF7"/>
<path d="M107.925 103.804C107.75 103.931 107.463 103.931 107.287 103.804L105.347 102.395C105.171 102.267 105.171 102.059 105.346 101.932L107.287 100.522C107.463 100.395 107.75 100.395 107.925 100.523L109.866 101.932C110.042 102.059 110.042 102.267 109.866 102.395L107.925 103.804Z" fill="#E2DEF7"/>
<path d="M70.0111 80.5933C69.8359 80.7206 69.5488 80.7206 69.3736 80.5933L67.4325 79.1844C67.2569 79.0571 67.2569 78.8485 67.4325 78.7215L69.3736 77.3123C69.5488 77.1848 69.8359 77.1848 70.0111 77.3123L71.9522 78.7215C72.1278 78.8485 72.1278 79.0571 71.9522 79.1841L70.0111 80.5933Z" fill="#E2DEF7"/>
<path d="M67.042 78.4369C66.8667 78.5642 66.5802 78.5642 66.4047 78.4369L62.2722 75.4372C62.0968 75.3105 62.0968 75.1019 62.2722 74.9746L64.2135 73.5651C64.3885 73.4381 64.6753 73.4381 64.8508 73.5651L68.9831 76.5651C69.1583 76.6921 69.1583 76.9007 68.9831 77.0279L67.042 78.4369Z" fill="#E2DEF7"/>
<path d="M72.9835 82.7492C72.8083 82.8768 72.5215 82.8768 72.3458 82.7492L70.4052 81.3403C70.2295 81.213 70.2295 81.0047 70.4052 80.8774L72.3458 79.4685C72.5215 79.3409 72.8083 79.3409 72.9837 79.4685L74.9246 80.8774C75.1001 81.0047 75.1001 81.213 74.9246 81.3403L72.9835 82.7492Z" fill="#E2DEF7"/>
<path d="M75.9521 84.9054C75.7771 85.0326 75.4903 85.0326 75.3151 84.9054L73.3738 83.4967C73.1983 83.3692 73.1983 83.1608 73.3738 83.0338L75.3151 81.6246C75.4903 81.4974 75.7771 81.4974 75.9523 81.6246L77.8934 83.0338C78.0689 83.1608 78.0689 83.3692 77.8934 83.4967L75.9521 84.9054Z" fill="#E2DEF7"/>
<path d="M78.9249 87.0613C78.7499 87.1888 78.4629 87.1888 78.2877 87.0613L76.3468 85.6523C76.1709 85.5251 76.1709 85.3167 76.3466 85.1897L78.2877 83.7805C78.4629 83.6533 78.7499 83.6533 78.9249 83.7805L80.8662 85.1897C81.0414 85.3167 81.0414 85.5251 80.8662 85.6523L78.9249 87.0613Z" fill="#E2DEF7"/>
<path d="M81.8938 89.2177C81.7186 89.345 81.4316 89.345 81.2561 89.2177L79.315 87.8085C79.1398 87.6812 79.1398 87.4726 79.315 87.3456L81.2561 85.9367C81.4313 85.8091 81.7183 85.8091 81.8938 85.9369L83.8344 87.3456C84.0101 87.4729 84.0101 87.6812 83.8344 87.8085L81.8938 89.2177Z" fill="#E2DEF7"/>
<path d="M84.8622 91.3739C84.687 91.5011 84.4002 91.5011 84.2247 91.3739L82.2841 89.9649C82.1084 89.8377 82.1084 89.629 82.2841 89.5021L84.2247 88.0928C84.4002 87.9653 84.687 87.9653 84.8624 88.0928L86.8033 89.5021C86.9787 89.629 86.9787 89.8377 86.8033 89.9649L84.8622 91.3739Z" fill="#E2DEF7"/>
<path d="M87.8351 93.53C87.6597 93.6573 87.3729 93.6573 87.1975 93.53L85.2566 92.1211C85.0811 91.9936 85.0811 91.7855 85.2566 91.6585L87.1975 90.2493C87.3729 90.122 87.6597 90.122 87.8351 90.2493L89.776 91.6585C89.9515 91.7855 89.9515 91.9938 89.776 92.1211L87.8351 93.53Z" fill="#E2DEF7"/>
<path d="M90.8036 95.6862C90.6284 95.8137 90.3414 95.8137 90.1664 95.6862L88.2255 94.2775C88.0499 94.1503 88.0499 93.9416 88.2253 93.8147L90.1664 92.4052C90.3412 92.2779 90.6282 92.2779 90.8034 92.4052L92.7447 93.8147C92.9204 93.9419 92.9204 94.1503 92.7447 94.2775L90.8036 95.6862Z" fill="#E2DEF7"/>
<path d="M93.7765 97.8421C93.6013 97.9693 93.3143 97.9693 93.1388 97.8421L91.1982 96.4334C91.0225 96.3059 91.0225 96.0975 91.198 95.9705L93.1388 94.5613C93.3141 94.4341 93.6011 94.4341 93.7765 94.5613L95.7174 95.9705C95.8931 96.0975 95.8931 96.3059 95.7174 96.4334L93.7765 97.8421Z" fill="#E2DEF7"/>
<path d="M96.7453 99.9985C96.5701 100.126 96.2831 100.126 96.1078 99.9985L94.1667 98.5896C93.9913 98.4621 93.9913 98.2537 94.1667 98.1264L96.1078 96.7175C96.2831 96.59 96.5701 96.59 96.7453 96.7177L98.6862 98.1264C98.8618 98.254 98.8618 98.4623 98.6862 98.5896L96.7453 99.9985Z" fill="#E2DEF7"/>
<path d="M99.7138 102.154C99.5388 102.282 99.2518 102.282 99.0766 102.154L97.1355 100.745C96.96 100.618 96.96 100.41 97.1355 100.283L99.0766 98.8736C99.2516 98.7461 99.5386 98.7461 99.7138 98.8736L101.655 100.283C101.83 100.41 101.83 100.618 101.655 100.745L99.7138 102.154Z" fill="#E2DEF7"/>
<path d="M104.958 105.959C104.783 106.087 104.496 106.087 104.321 105.959L100.108 102.901C99.9328 102.774 99.9328 102.566 100.108 102.438L102.049 101.03C102.224 100.902 102.511 100.902 102.687 101.03L106.899 104.088C107.074 104.215 107.074 104.423 106.899 104.551L104.958 105.959Z" fill="#E2DEF7"/>
<path d="M68.5574 83.8492C68.3821 83.9764 68.0953 83.9764 67.9203 83.8492L65.9792 82.4402C65.8038 82.3127 65.8038 82.104 65.9792 81.9773L67.9203 80.5678C68.0953 80.4409 68.3821 80.4409 68.5576 80.5678L70.4989 81.9773C70.6743 82.104 70.6743 82.3127 70.4989 82.4402L68.5574 83.8492Z" fill="#E2DEF7"/>
<path d="M65.5819 81.6881C65.4067 81.8156 65.1192 81.8156 64.944 81.6878L59.3033 77.5934C59.1281 77.4661 59.1281 77.258 59.3033 77.1308L61.2446 75.7218C61.4198 75.5943 61.7068 75.5943 61.8823 75.7218L67.523 79.8166C67.6982 79.9435 67.6982 80.1519 67.523 80.2792L65.5819 81.6881Z" fill="#E2DEF7"/>
<path d="M71.5267 86.0048C71.3517 86.132 71.0644 86.132 70.8892 86.0048L68.9483 84.5958C68.7725 84.4686 68.7725 84.2599 68.9481 84.133L70.8892 82.724C71.0644 82.5968 71.3517 82.5968 71.5267 82.724L73.468 84.133C73.6432 84.2599 73.6432 84.4686 73.468 84.5958L71.5267 86.0048Z" fill="#E2DEF7"/>
<path d="M74.4992 88.1609C74.324 88.2885 74.0372 88.2885 73.8617 88.1609L71.9206 86.7523C71.7452 86.6247 71.7452 86.4164 71.9206 86.2894L73.8617 84.8802C74.0372 84.7526 74.324 84.7526 74.4994 84.8802L76.4401 86.2894C76.6157 86.4164 76.6157 86.6247 76.4401 86.752L74.4992 88.1609Z" fill="#E2DEF7"/>
<path d="M77.4681 90.3168C77.2931 90.4444 77.0061 90.4444 76.8309 90.3168L74.8896 88.9082C74.7139 88.7806 74.7139 88.5725 74.8896 88.4453L76.8309 87.0363C77.0061 86.9088 77.2931 86.9088 77.4681 87.0363L79.4092 88.4453C79.5844 88.5725 79.5844 88.7806 79.4092 88.9082L77.4681 90.3168Z" fill="#E2DEF7"/>
<path d="M80.4366 92.4733C80.2614 92.6008 79.9748 92.6005 79.7992 92.4727L77.8583 91.0643C77.6826 90.9371 77.6826 90.7287 77.8583 90.6017L79.7992 89.1922C79.9746 89.065 80.2614 89.065 80.4366 89.1922L82.3777 90.6017C82.5532 90.7287 82.5532 90.9371 82.3782 91.0643L80.4366 92.4733Z" fill="#E2DEF7"/>
<path d="M83.4092 94.6294C83.234 94.7567 82.947 94.7567 82.7717 94.6291L80.8306 93.2205C80.6554 93.0932 80.6554 92.8848 80.8306 92.7576L82.7717 91.3486C82.947 91.2211 83.234 91.2211 83.4092 91.3486L85.3499 92.7576C85.5257 92.8848 85.5257 93.0932 85.3499 93.2205L83.4092 94.6294Z" fill="#E2DEF7"/>
<path d="M86.3781 96.7856C86.2029 96.9128 85.9157 96.9128 85.7402 96.7853L83.7998 95.3766C83.6241 95.2494 83.6241 95.041 83.7993 94.9138L85.7404 93.5045C85.9157 93.3773 86.2029 93.3773 86.3781 93.5045L88.3188 94.9138C88.4942 95.041 88.4942 95.2494 88.3188 95.3766L86.3781 96.7856Z" fill="#E2DEF7"/>
<path d="M89.3506 98.9415C89.1752 99.069 88.8881 99.069 88.7129 98.9412L86.772 97.5331C86.5968 97.4055 86.5968 97.1969 86.772 97.0699L88.7129 95.6607C88.8881 95.5334 89.1752 95.5334 89.3506 95.6607L91.2913 97.0699C91.4669 97.1969 91.4669 97.4055 91.2913 97.5331L89.3506 98.9415Z" fill="#E2DEF7"/>
<path d="M92.3193 101.098C92.144 101.225 91.857 101.225 91.682 101.098L89.7411 99.689C89.5655 99.5617 89.5655 99.3531 89.7409 99.2261L91.682 97.8166C91.857 97.6896 92.144 97.6893 92.3193 97.8166L94.2604 99.2261C94.4358 99.3531 94.4358 99.5617 94.2604 99.689L92.3193 101.098Z" fill="#E2DEF7"/>
<path d="M95.2883 103.254C95.113 103.381 94.8258 103.381 94.6506 103.254L92.7097 101.845C92.5343 101.718 92.5343 101.509 92.7097 101.382L94.6506 99.973C94.8258 99.8458 95.113 99.8458 95.2883 99.973L97.2291 101.382C97.4048 101.509 97.4048 101.718 97.2291 101.845L95.2883 103.254Z" fill="#E2DEF7"/>
<path d="M101.989 108.116C101.813 108.243 101.526 108.243 101.351 108.116L95.6824 104.001C95.5069 103.873 95.5069 103.666 95.6824 103.538L97.6237 102.129C97.7989 102.002 98.0859 102.002 98.2611 102.129L103.929 106.244C104.104 106.371 104.104 106.579 103.929 106.707L101.989 108.116Z" fill="#E2DEF7"/>
<path d="M64.9688 67.8162L67.8695 69.9129L74.8097 64.8005L71.9817 62.7477L64.9688 67.8162Z" fill="black" fill-opacity="0.3"/>
<path d="M122.402 99.3189L118.974 96.8309L112.191 102.122L115.372 104.421L122.402 99.3189Z" fill="black" fill-opacity="0.3"/>
<path d="M118.066 96.2063L97.337 81.1598L90.5547 86.4514L111.126 101.319L118.066 96.2063Z" fill="black" fill-opacity="0.3"/>
<path d="M96.4412 80.3953L75.7118 65.3488L68.9297 70.6403L89.5012 85.5077L96.4412 80.3953Z" fill="black" fill-opacity="0.3"/>
<path d="M113.743 129.747L116.815 127.564L106.873 120.362L108.212 119.622L90.4107 106.727C93.0907 104.463 94.4353 101.652 94.4353 98.8386V95.0459C94.4355 91.9426 92.805 88.8403 89.5436 86.4722C86.2821 84.105 82.008 82.9212 77.7329 82.9212C73.4586 82.9212 69.1843 84.1055 65.9234 86.4722C62.6618 88.8403 61.0312 91.9426 61.0312 95.0456V98.8384C61.0312 101.942 62.6618 105.044 65.9229 107.411C69.1845 109.779 73.459 110.963 77.7333 110.963C81.2421 110.963 84.7499 110.164 87.6981 108.569L94.1932 113.274L92.4511 114.511C92.4511 114.511 92.0805 114.916 92.759 115.408L112.55 129.744C112.55 129.744 113.186 130.143 113.743 129.747ZM63.1219 95.0456C63.1219 92.3314 64.5485 89.6166 67.4016 87.5456C70.2546 85.4743 73.9937 84.4395 77.7329 84.439C81.4728 84.439 85.2124 85.4743 88.0654 87.5456C90.9183 89.6166 92.3445 92.3316 92.3445 95.0459C92.3445 97.7604 90.918 100.475 88.0654 102.545C85.2119 104.617 81.4728 105.652 77.7333 105.652L67.5513 101.733L63.1219 95.0456Z" fill="black" fill-opacity="0.3"/>
<path d="M90.9223 85.3018C87.661 82.9343 83.3867 81.7508 79.1118 81.7508C74.8375 81.7508 70.5632 82.9345 67.3023 85.3018C64.0409 87.6693 62.4102 90.7721 62.4102 93.8749V97.6682C62.4102 100.771 64.0409 103.873 67.3018 106.241C70.5636 108.608 74.8379 109.792 79.1124 109.792C83.3869 109.792 87.661 108.608 90.9223 106.241C94.1837 103.873 95.8144 100.771 95.8144 97.6687V93.8752C95.8147 90.7724 94.1839 87.6693 90.9223 85.3018ZM89.4443 101.375C86.5906 103.446 82.8517 104.482 79.1124 104.482C75.3731 104.482 71.6337 103.446 68.7803 101.375C65.9272 99.3037 64.501 96.5889 64.501 93.8749C64.501 91.1606 65.9272 88.4466 68.7803 86.3751C71.6335 84.3044 75.3724 83.2693 79.1118 83.2685C82.8517 83.2685 86.5911 84.3044 89.4443 86.3751C92.2974 88.4466 93.7236 91.1606 93.7236 93.8752C93.7236 96.5894 92.2965 99.3037 89.4443 101.375Z" fill="#8B8B8B"/>
<path d="M68.7832 88.6558C71.6364 86.5846 75.3751 85.5495 79.1144 85.5495C82.8544 85.549 86.594 86.5846 89.4472 88.6558C91.9 90.4365 93.2951 92.6933 93.6393 95.0155C93.6954 94.6365 93.7263 94.2558 93.7263 93.8754C93.7263 91.1609 92.3003 88.4466 89.4472 86.3751C86.594 84.3044 82.8544 83.2685 79.1144 83.2685C75.3751 83.2691 71.6364 84.3044 68.7832 86.3751C65.9301 88.4466 64.5039 91.1609 64.5039 93.8752C64.5039 94.2558 64.5348 94.6365 64.5907 95.0155C64.9353 92.6927 66.3304 90.4365 68.7832 88.6558Z" fill="#C1C1C1"/>
<path d="M79.1147 83.8182C75.3753 83.8182 71.6364 84.853 68.7832 86.9243C65.9301 88.9958 64.5039 91.7103 64.5039 94.4246C64.5039 97.1386 65.9301 99.8534 68.7832 101.924C71.6366 103.996 75.376 105.031 79.1153 105.031C82.8546 105.031 86.5935 103.996 89.4472 101.924C92.2994 99.8534 93.7265 97.1391 93.7265 94.4246C93.7265 91.7103 92.3003 88.9958 89.4472 86.9243C86.594 84.853 82.8546 83.8179 79.1147 83.8182Z" fill="#77D2FF" fill-opacity="0.3"/>
<path d="M89.1303 100.562C86.3964 102.249 82.8135 103.093 79.2306 103.093C75.6475 103.093 72.0653 102.249 69.3311 100.562C68.1721 99.8463 67.261 99.0362 66.5938 98.1723C67.2575 99.2717 68.2058 100.302 69.4455 101.203C72.1151 103.141 75.6136 104.11 79.1123 104.11C82.6111 104.11 86.1091 103.141 88.7788 101.203C89.5994 100.607 90.2921 99.9546 90.8605 99.2627C90.3618 99.721 89.7863 100.157 89.1303 100.562Z" fill="white"/>
<path d="M90.9223 85.3021C87.661 82.9345 83.3867 81.7511 79.1118 81.7511C74.8375 81.7511 70.5632 82.9348 67.3023 85.3021C64.0409 87.6696 62.4102 90.7724 62.4102 93.8752C62.4102 96.978 64.0409 100.081 67.3018 102.448C70.5636 104.816 74.8379 106 79.1124 105.999C83.3869 106 87.661 104.816 90.9223 102.448C94.1837 100.081 95.8144 96.9788 95.8144 93.8754C95.8147 90.7726 94.1839 87.6696 90.9223 85.3021ZM89.4443 101.375C86.5906 103.447 82.8517 104.482 79.1124 104.482C75.3731 104.482 71.6337 103.447 68.7803 101.375C65.9272 99.304 64.501 96.5892 64.501 93.8752C64.501 91.1609 65.9272 88.4466 68.7803 86.3751C71.6335 84.3044 75.3724 83.2693 79.1118 83.2685C82.8517 83.2685 86.5911 84.3044 89.4443 86.3751C92.2974 88.4466 93.7236 91.1609 93.7236 93.8754C93.7236 96.5897 92.2965 99.304 89.4443 101.375Z" fill="#C1C1C1"/>
<path d="M89.4477 86.9243C86.5944 84.853 82.8551 83.8179 79.1151 83.8182C75.3758 83.8182 71.6367 84.853 68.7834 86.9243C66.0117 88.9366 64.5905 91.5565 64.5117 94.1926C64.5238 94.4677 64.5508 94.7415 64.5911 95.0155C64.9358 92.6927 66.3307 90.4365 68.7834 88.6558C71.6367 86.5846 75.3758 85.5495 79.1151 85.5495C82.8551 85.549 86.5944 86.5846 89.4477 88.6558C91.9004 90.4365 93.2956 92.6933 93.6398 95.0155C93.6806 94.7415 93.7069 94.4677 93.719 94.1926C93.6402 91.5565 92.2194 88.9366 89.4477 86.9243Z" fill="#8B8B8B"/>
<path d="M90.6262 85.352C87.4465 83.0442 83.2788 81.8905 79.1113 81.8905C74.9445 81.8908 70.777 83.0444 67.5977 85.3525C64.4181 87.6604 62.8281 90.6858 62.8281 93.7107C62.8281 96.7354 64.4181 99.7609 67.5977 102.069C70.7772 104.377 74.9447 105.532 79.1119 105.531C83.2792 105.532 87.4465 104.377 90.6262 102.069C93.8051 99.7611 95.3951 96.7359 95.3951 93.7107C95.3953 90.6858 93.8056 87.6604 90.6262 85.352ZM89.4439 101.375C86.5902 103.447 82.8513 104.482 79.1119 104.482C75.3726 104.482 71.6333 103.447 68.7798 101.375C65.9268 99.304 64.5006 96.5892 64.5006 93.8752C64.5006 91.1609 65.9268 88.4466 68.7798 86.3751C71.6331 84.3044 75.372 83.2693 79.1113 83.2685C82.8513 83.2685 86.5906 84.3044 89.4439 86.3751C92.2969 88.4466 93.7231 91.1609 93.7231 93.8754C93.7231 96.5897 92.2961 99.304 89.4439 101.375Z" fill="#AAAAAA"/>
<path d="M89.4472 86.9243C86.594 84.853 82.8544 83.8179 79.1144 83.8182C75.3751 83.8182 71.6362 84.853 68.7829 86.9243C65.9299 88.9958 64.5039 91.7103 64.5039 94.4246C64.5039 97.0436 65.836 99.6613 68.4925 101.702C70.3205 98.6672 73.3757 94.7626 78.2038 91.5684C82.122 88.9773 86.8643 88.0728 90.523 87.7987C90.1896 87.497 89.8329 87.204 89.4472 86.9243Z" fill="white" fill-opacity="0.3"/>
<path d="M77.4007 84.6588C74.5202 84.9236 71.7338 85.8558 69.5221 87.4615C68.4194 88.2624 67.55 89.167 66.9062 90.131C67.4019 89.7053 67.9619 89.2975 68.594 88.9171C70.8079 87.5855 73.5433 86.7599 76.4043 86.4383C76.7188 85.7929 77.0673 85.1881 77.4007 84.6588Z" fill="white"/>
<path d="M88.705 87.4612C86.1858 85.6323 82.9212 84.6756 79.6202 84.5866C79.2954 85.1621 79.0358 85.7638 78.8398 86.2875C78.9493 86.2856 79.0587 86.2826 79.1681 86.2826C82.9957 86.2821 86.8228 87.1611 89.743 88.9166C90.2672 89.2321 90.7426 89.5658 91.1729 89.9131C90.5457 89.0302 89.7249 88.2016 88.705 87.4612Z" fill="white"/>
<path d="M97.4114 107.736L91.059 103.163C90.8177 102.991 90.4852 103.017 90.1192 103.283C89.3821 103.818 88.7852 105.119 88.7852 106.188C88.7852 106.726 88.9362 107.103 89.1801 107.277L95.5329 111.849C95.774 112.021 96.1054 111.994 96.4718 111.729C97.2084 111.194 97.8057 109.894 97.8057 108.824C97.8057 108.286 97.6544 107.91 97.4114 107.736Z" fill="#AAAAAA"/>
<path d="M97.8048 108.824C97.8048 109.894 97.2073 111.194 96.4708 111.729C96.1046 111.994 95.7731 112.021 95.5321 111.849C95.288 111.676 95.1367 111.298 95.1367 110.761C95.1367 109.691 95.7338 108.39 96.4708 107.856C96.8372 107.589 97.1693 107.563 97.4106 107.736C97.6536 107.91 97.8048 108.287 97.8048 108.824Z" fill="#B8BEC3"/>
<path d="M88.9714 105.069C88.8538 105.443 88.7852 105.828 88.7852 106.188C88.7852 106.726 88.9362 107.104 89.1803 107.277L95.5327 111.849C95.7737 112.021 96.1056 111.994 96.4718 111.729C96.7125 111.554 96.9377 111.297 97.1326 110.993L88.9714 105.069Z" fill="#8B8B8B"/>
<path d="M117.98 120.59L98.4071 106.792C97.9576 106.47 97.3387 106.519 96.655 107.015C95.2815 108.012 94.4336 109.968 94.4336 111.962C94.4336 112.965 94.7152 113.668 95.1705 113.992L114.478 128.259C114.927 128.579 115.546 128.529 116.228 128.034C117.601 127.037 118.715 124.613 118.715 122.619C118.715 121.617 118.434 120.915 117.98 120.59Z" fill="#5686C2"/>
<path d="M101.766 131.651C102.3 132.039 102.3 132.673 101.766 133.059L97.6685 136.034C97.1348 136.422 96.2619 136.422 95.7287 136.034L91.6305 133.059C91.0973 132.673 91.0971 132.039 91.6303 131.651L95.7287 128.677C96.2619 128.289 97.1348 128.289 97.6685 128.677L101.766 131.651Z" fill="#8BAF3D"/>
<path d="M34.3212 99.3897C34.8546 99.7771 34.8546 100.411 34.3212 100.798L30.2232 103.773C29.6895 104.16 28.8166 104.16 28.2834 103.773L24.1852 100.798C23.652 100.411 23.6517 99.7771 24.185 99.3897L28.2834 96.415C28.8166 96.0275 29.6895 96.0275 30.2232 96.415L34.3212 99.3897Z" fill="#8BAF3D"/>
<path d="M126.254 116.179C126.634 116.456 126.634 116.907 126.254 117.183L123.334 119.302C122.953 119.578 122.331 119.578 121.951 119.302L119.031 117.183C118.651 116.907 118.651 116.456 119.031 116.179L121.951 114.06C122.331 113.784 122.953 113.784 123.334 114.06L126.254 116.179Z" fill="#8BAF3D"/>
<path d="M135.502 121.049C135.746 121.226 135.746 121.515 135.502 121.692L133.633 123.049C133.389 123.226 132.991 123.226 132.747 123.049L130.878 121.692C130.635 121.515 130.634 121.226 130.878 121.049L132.747 119.692C132.991 119.516 133.389 119.516 133.633 119.692L135.502 121.049Z" fill="#8BAF3D"/>
<path d="M74.9808 126.626C75.3809 126.917 75.3809 127.392 74.9808 127.683L71.9083 129.912C71.5082 130.202 70.8542 130.202 70.4541 129.912L67.3818 127.683C66.9823 127.392 66.9819 126.917 67.3818 126.626L70.4541 124.396C70.8542 124.106 71.5082 124.106 71.9083 124.396L74.9808 126.626Z" fill="#8BAF3D"/>
<path d="M33.9984 111.637C34.2418 111.814 34.2418 112.103 33.9984 112.279L32.1288 113.636C31.8853 113.813 31.487 113.813 31.2436 113.636L29.3739 112.279C29.1307 112.103 29.1305 111.814 29.3739 111.637L31.2436 110.28C31.487 110.103 31.8853 110.103 32.1288 110.28L33.9984 111.637Z" fill="#8BAF3D"/>
<path d="M114.539 36.9158C114.539 37.93 115.11 39.1748 115.809 39.6816L120.354 42.9808C121.052 43.4876 121.624 43.0728 121.624 42.0589V35.4607C121.624 34.446 121.053 33.2017 120.354 32.6943L115.809 29.3957C115.11 28.8886 114.539 29.3031 114.539 30.3179V36.9158Z" fill="#FFD22D"/>
<path d="M121.625 42.0589V35.4607C121.625 34.446 121.054 33.202 120.355 32.6949L115.81 29.3959C115.503 29.1729 115.22 29.1281 115 29.2345L115.766 28.6441C115.997 28.4593 116.324 28.4759 116.684 28.7374L121.23 32.0367C121.928 32.5438 122.499 33.7883 122.5 34.8025L122.499 41.4007C122.499 41.9208 122.349 42.2827 122.109 42.4441L121.268 43.0774V43.0763C121.489 42.904 121.625 42.5535 121.625 42.0589Z" fill="#EBAC07"/>
<path d="M119.735 34.8334L119.484 34.287L118.906 34.7067C119.008 34.8736 119.102 35.0486 119.187 35.2322L119.735 34.8334Z" fill="white"/>
<path d="M117.079 33.3802L116.501 32.1227L116.25 32.3055L116.798 33.4983C116.883 33.4378 116.977 33.4009 117.079 33.3802Z" fill="white"/>
<path d="M118.172 33.8048V32.544L117.816 32.2865V33.5471C117.875 33.5802 117.933 33.6057 117.994 33.6496C118.055 33.6936 118.112 33.7527 118.172 33.8048Z" fill="white"/>
<path d="M115.707 34.3328L116.303 34.7648C116.308 34.5914 116.328 34.4338 116.36 34.2902L115.707 33.8173V34.3328Z" fill="white"/>
<path d="M119.629 36.6626C119.66 36.8515 119.679 37.0373 119.686 37.2188L120.281 37.6513V37.1361L119.629 36.6626Z" fill="white"/>
<path d="M117.994 34.2376C117.279 33.7188 116.699 34.1394 116.699 35.1774C116.699 35.6677 116.868 36.1908 117.04 36.6949C117.217 37.2169 117.447 37.5393 117.447 37.9943V38.964C117.447 39.1796 117.568 39.4439 117.716 39.5511L118.272 39.9551C118.42 40.0622 118.541 39.9743 118.541 39.7586C118.541 39.7586 118.542 39.0939 118.541 38.7887C118.541 38.3342 118.771 38.3443 118.948 38.0803C119.12 37.825 119.289 37.5469 119.289 37.0571C119.289 36.0188 118.709 34.7558 117.994 34.2376ZM118.692 36.9405C118.692 36.9405 118.854 36.1797 118.098 34.64C118.098 34.64 119.117 35.5169 119.088 37.2283L118.692 36.9405Z" fill="white"/>
<path d="M105.434 30.3369C105.434 31.351 106.005 32.5958 106.704 33.1027L111.249 36.4019C111.947 36.9087 112.519 36.4939 112.519 35.4802V28.882C112.519 27.8676 111.947 26.6233 111.249 26.116L106.704 22.817C106.005 22.3102 105.434 22.7245 105.434 23.7389V30.3369Z" fill="#372780"/>
<path d="M112.519 35.48V28.8821C112.519 27.8673 111.948 26.6233 111.249 26.116L106.704 22.817C106.397 22.594 106.114 22.5492 105.895 22.6559V22.6556L106.66 22.0652C106.892 21.8804 107.218 21.8972 107.579 22.1585L112.124 25.4578C112.822 25.9646 113.393 27.2091 113.394 28.2236L113.393 34.8217C113.393 35.3419 113.243 35.7041 113.003 35.8652L112.162 36.4985V36.4974C112.383 36.3251 112.519 35.9748 112.519 35.48Z" fill="#281F66"/>
<path d="M110.845 29.2106L110.002 28.5985V27.7683C110.002 27.6543 109.938 27.5143 109.859 27.4576L108.055 26.1477C107.976 26.0907 107.912 26.1377 107.912 26.2516L107.912 27.081L107.107 26.4974C107.029 26.4402 106.965 26.4869 106.965 26.6011L106.965 30.74C106.965 30.854 107.029 30.994 107.107 31.0512L110.845 33.7644C110.924 33.8211 110.988 33.7739 110.988 33.6602L110.988 29.5213C110.988 29.4076 110.924 29.2676 110.845 29.2106ZM108.193 26.6505L109.72 27.7591V28.394L108.193 27.2853V26.6505ZM110.509 32.3587L107.369 30.0802V29.8452L110.509 32.1235V32.3587ZM110.509 31.4525L107.369 29.1732V28.9382L110.509 31.2173V31.4525ZM110.509 30.5458L107.369 28.267V28.0317L110.509 30.3108V30.5458Z" fill="#F5F5F5"/>
<path d="M96.0977 23.5965C96.0977 24.6107 96.6687 25.8558 97.3674 26.3623L101.912 29.6616C102.611 30.1684 103.183 29.7538 103.183 28.7399V22.1417C103.183 21.127 102.611 19.883 101.912 19.3756L97.3674 16.0767C96.6687 15.5698 96.0977 15.9842 96.0977 16.9986V23.5965Z" fill="#DF6A28"/>
<path d="M103.184 28.7396V22.1414C103.184 21.127 102.612 19.883 101.913 19.3756L97.368 16.0767C97.0605 15.8534 96.7785 15.8091 96.5586 15.9155V15.9152L97.3242 15.3248C97.556 15.1401 97.8825 15.1569 98.2425 15.4184L102.788 18.7174C103.486 19.2242 104.057 20.4688 104.058 21.4832L104.058 28.0814C104.058 28.6018 103.907 28.9637 103.667 29.1249L102.826 29.7581V29.7571C103.047 29.5848 103.184 29.2348 103.184 28.7396Z" fill="#AA4F20"/>
<path d="M98.1211 22.362V23.4912C98.1211 23.8168 98.2691 24.2507 98.5659 24.7146C99.1593 25.6428 100.122 26.3412 100.715 26.2744C101.012 26.241 101.16 26.0226 101.16 25.6968V24.5678L99.6405 24.7385L98.1211 22.362Z" fill="#F5F5F5"/>
<path d="M102.325 24.1983L99.6391 19.9975L96.9531 20.2992L99.6391 24.4997L102.325 24.1983Z" fill="#F5F5F5"/>
<path d="M86.9531 16.8342C86.9531 17.8484 87.5237 19.0935 88.2227 19.6L92.7678 22.8992C93.4665 23.4063 94.0377 22.9912 94.0377 21.9773V15.3791C94.0377 14.3647 93.4665 13.1204 92.7678 12.613L88.2227 9.31407C87.5239 8.80725 86.9531 9.22182 86.9531 10.2363V16.8342Z" fill="#C81F56"/>
<path d="M94.0392 21.9773V15.3791C94.0392 14.3647 93.468 13.1201 92.7693 12.613L88.2239 9.31407C87.9169 9.09078 87.6342 9.0471 87.4141 9.15318V9.15291L88.1801 8.56252C88.4113 8.37776 88.7382 8.39458 89.0986 8.65586L93.6437 11.9551C94.342 12.4622 94.9132 13.7064 94.9143 14.7209L94.913 21.3185C94.913 21.8389 94.763 22.2014 94.5228 22.3626L93.6819 22.9955V22.9947C93.9026 22.8224 94.0392 22.4722 94.0392 21.9773Z" fill="#8B1641"/>
<path d="M92.6884 15.8778L88.3047 12.6958L90.5483 15.9266L92.6884 15.8778Z" fill="#F5F5F5"/>
<path d="M90.5483 16.5661L88.3047 12.6955V17.0287L92.6884 20.2105V15.8778L90.5483 16.5661Z" fill="#F5F5F5"/>
<path d="M77.832 10.43C77.832 11.4442 78.4028 12.6893 79.1018 13.1958L83.6465 16.495C84.3454 17.0021 84.9171 16.587 84.9171 15.5731V8.97493C84.9171 7.96047 84.3456 6.71621 83.6465 6.20884L79.1018 2.91016C78.4028 2.40307 77.832 2.81764 77.832 3.8321V10.43Z" fill="#5686C2"/>
<path d="M84.9181 15.5731V8.97493C84.9181 7.96047 84.3467 6.71648 83.6475 6.20911L79.1029 2.91043C78.7953 2.68713 78.5131 2.64264 78.293 2.74872L79.0588 2.15861C79.2906 1.97384 79.6171 1.99066 79.9773 2.25194L84.5224 5.55089C85.2209 6.05799 85.7921 7.30279 85.7928 8.31698L85.7921 14.9149C85.7921 15.4353 85.6419 15.7972 85.4015 15.9584L84.561 16.5916V16.5905C84.7813 16.4183 84.9181 16.0677 84.9181 15.5731Z" fill="#396C9E"/>
<path d="M82.5224 11.4575L81.5522 12.1616L80.582 10.0491C80.0255 10.1259 79.6523 10.7371 79.6523 11.7456L83.4521 14.503C83.4521 13.4945 83.0788 12.3423 82.5224 11.4575Z" fill="#F5F5F5"/>
<path d="M81.5538 10.1126C82.3192 10.668 82.9397 10.2173 82.9397 9.10652C82.9397 7.9952 82.3192 6.64377 81.5538 6.08811C80.7886 5.53272 80.168 5.98311 80.168 7.09442C80.168 8.20547 80.7882 9.55691 81.5538 10.1126Z" fill="#F5F5F5"/>
<path d="M93.6772 60.0551C93.6772 60.1525 93.6223 60.1923 93.5552 60.1436L92.4462 59.3386C92.3791 59.2899 92.3242 59.1704 92.3242 59.073L92.3242 56.4809C92.3242 56.3835 92.3791 56.3436 92.4462 56.3923L93.5553 57.1973C93.6223 57.246 93.6772 57.3656 93.6772 57.463L93.6772 60.0551Z" fill="black" fill-opacity="0.3"/>
<path d="M93.392 60.2626C93.392 60.36 93.3372 60.3998 93.2701 60.3511L92.1611 59.5461C92.094 59.4974 92.039 59.3779 92.0391 59.2805L92.0391 56.6883C92.0391 56.5909 92.094 56.5511 92.1611 56.5998L93.2701 57.4048C93.3372 57.4535 93.3921 57.573 93.3921 57.6704L93.392 60.2626Z" fill="#FAFAFA"/>
<path d="M93.1415 58.1189C93.1415 57.7818 92.9533 57.372 92.7211 57.2035C92.489 57.035 92.3008 57.1716 92.3008 57.5086C92.3008 57.8457 92.489 58.2555 92.7211 58.4241C92.9533 58.5926 93.1415 58.4559 93.1415 58.1189Z" fill="#372780"/>
<path d="M92.9617 57.9413C92.9617 57.9413 92.9738 58.0837 92.9238 58.1415L92.9193 58.1016C92.9193 58.1016 92.9013 58.1648 92.8147 58.1296C92.7281 58.0945 92.5899 57.9492 92.5728 57.8728C92.5728 57.8728 92.5824 57.9224 92.5882 57.9345C92.5882 57.9345 92.5131 57.781 92.5157 57.7096C92.5183 57.6382 92.5792 57.5439 92.5792 57.5439L92.7236 57.421L92.8101 57.4671C92.8101 57.4671 92.9086 57.5919 92.9098 57.5977C92.911 57.6035 92.9617 57.9413 92.9617 57.9413Z" fill="black"/>
<path d="M92.8506 58.2034C92.8207 58.1418 92.8394 58.0032 92.8394 58.0032L92.6252 57.8476C92.6252 57.8476 92.6439 58.0135 92.6141 58.0318C92.5842 58.0501 92.4648 58.0264 92.4648 58.0264L92.5217 58.1943L92.9258 58.4876L92.9937 58.4103C92.9937 58.4103 92.8804 58.2651 92.8506 58.2034Z" fill="#FFAF73"/>
<path d="M92.73 58.0408C92.7625 58.0644 92.7876 58.0545 92.817 58.0451C92.8464 58.0357 92.867 58.008 92.8823 57.9209C92.8975 57.8339 92.8881 57.7938 92.8928 57.7656C92.8975 57.7375 92.9101 57.5953 92.857 57.4717C92.8114 57.3657 92.7536 57.3199 92.73 57.3028C92.7065 57.2857 92.6487 57.2476 92.6031 57.2875C92.55 57.3339 92.5625 57.4943 92.5672 57.5293C92.5719 57.5643 92.5625 57.5907 92.5778 57.6999C92.5931 57.8092 92.6136 57.8668 92.643 57.9188C92.6724 57.9709 92.6975 58.0172 92.73 58.0408Z" fill="#FFAF73"/>
<path d="M92.8742 57.8809C92.8527 57.9002 92.8324 57.914 92.8229 57.9476C92.8162 57.9713 92.8098 58.0148 92.7969 58.0513C92.8035 58.0495 92.8101 58.0473 92.817 58.0451C92.8464 58.0357 92.8669 58.008 92.8822 57.9209C92.887 57.8939 92.8893 57.8714 92.8905 57.8523C92.8855 57.8651 92.88 57.8758 92.8742 57.8809Z" fill="#CD7A38"/>
<path d="M92.8618 57.5109C92.8618 57.5109 92.695 57.349 92.6136 57.2798C92.6101 57.2819 92.6065 57.2844 92.6031 57.2875C92.55 57.3339 92.5625 57.4944 92.5672 57.5293C92.572 57.5643 92.5625 57.5908 92.5778 57.7C92.5931 57.8092 92.6136 57.8668 92.643 57.9188C92.671 57.9684 92.695 58.0127 92.7254 58.0372C92.7172 57.9677 92.7213 57.8719 92.7212 57.8526C92.7209 57.8304 92.7144 57.7888 92.7113 57.7718C92.7083 57.7559 92.722 57.7166 92.7211 57.669C92.7137 57.5584 92.7312 57.535 92.743 57.5138C92.7666 57.4718 92.801 57.5042 92.8482 57.6149C92.9023 57.7414 92.8618 57.5109 92.8618 57.5109Z" fill="#CD7A38"/>
<path d="M92.585 57.6707C92.5798 57.6585 92.5749 57.6423 92.5703 57.6246C92.5716 57.6444 92.5739 57.6688 92.5783 57.6999C92.5935 57.8092 92.6141 57.8668 92.6435 57.9188C92.6498 57.9299 92.6559 57.9408 92.6619 57.9512C92.6493 57.8967 92.6429 57.8448 92.6363 57.8118C92.6268 57.7645 92.6065 57.7212 92.585 57.6707Z" fill="#CD7A38"/>
<path d="M92.8835 58.2541C92.865 58.2745 92.8202 58.403 92.7281 58.3361C92.6367 58.2699 92.589 58.0777 92.5685 58.0303C92.5259 58.0345 92.4219 58.0231 92.4219 58.0231V58.0248C92.4981 58.1924 92.604 58.339 92.7212 58.4241C92.8411 58.5111 92.9492 58.5165 93.0258 58.4552C92.9978 58.4173 92.9181 58.3091 92.8835 58.2541Z" fill="#EEEEEE"/>
<path d="M92.5722 57.5655C92.5722 57.5655 92.5667 57.5317 92.5545 57.5205C92.5423 57.5093 92.5295 57.5223 92.5378 57.5872C92.5462 57.652 92.5545 57.6669 92.5577 57.6837C92.5609 57.7005 92.5735 57.732 92.5847 57.7056L92.5722 57.5655Z" fill="#CD7A38"/>
<path d="M92.8914 57.797C92.8914 57.797 92.8969 57.7712 92.9091 57.7777C92.9213 57.7842 92.9341 57.8159 92.9258 57.8686C92.9174 57.9213 92.9091 57.9242 92.9059 57.9363C92.9027 57.9484 92.8901 57.9617 92.8789 57.919L92.8914 57.797Z" fill="#FFAF73"/>
<path d="M92.7342 58.3494L92.575 58.0196H92.5352L92.6409 58.3553C92.6517 58.3661 92.6627 58.3765 92.6738 58.3863L92.7342 58.3494Z" fill="#D2D2D2"/>
<path d="M92.7305 58.345L92.7889 58.4645C92.8022 58.4711 92.8153 58.4767 92.8282 58.4812L92.9295 58.3041L92.8897 58.2463L92.7305 58.345Z" fill="#D2D2D2"/>
<path d="M92.7774 57.4707C92.7757 57.4706 92.8514 57.5552 92.872 57.6722C92.8925 57.7891 92.9112 57.4811 92.7774 57.4707Z" fill="black"/>
<path d="M92.8091 57.513C92.8091 57.513 92.7664 57.4253 92.7378 57.4929C92.7201 57.5348 92.6937 57.6486 92.6154 57.6343C92.6154 57.6343 92.5372 57.6993 92.5866 57.847C92.5866 57.847 92.5404 57.7838 92.5353 57.7226C92.5353 57.7226 92.5218 57.7465 92.5314 57.797C92.5314 57.797 92.491 57.7113 92.5019 57.6301C92.5128 57.5489 92.5115 57.3596 92.5538 57.2999C92.5962 57.2402 92.7278 57.1912 92.8131 57.366C92.8131 57.366 92.8914 57.4169 92.926 57.5648C92.9607 57.7127 92.9575 57.7104 92.9626 57.7626C92.9677 57.8148 92.9536 57.9917 92.9966 58.0377C92.9966 58.0377 92.9649 57.9993 92.9549 57.9599C92.9549 57.9599 92.9543 58.0842 92.8907 58.0609C92.8907 58.0609 92.9299 58.02 92.9241 57.9484C92.9183 57.877 92.8734 57.7612 92.8747 57.6958C92.876 57.6304 92.872 57.4834 92.8091 57.513Z" fill="#131313"/>
<path d="M93.2867 59.3792L92.1875 58.5813V58.5336L93.2867 59.3315V59.3792Z" fill="#D5D1EA"/>
<path d="M93.2867 59.5127L92.1875 58.7149V58.6671L93.2867 59.465V59.5127Z" fill="#D5D1EA"/>
<path d="M93.2867 59.6463L92.1875 58.8484V58.8007L93.2867 59.5986V59.6463Z" fill="#D5D1EA"/>
<path d="M93.2867 59.7798L92.1875 58.982V58.9342L93.2867 59.7321V59.7798Z" fill="#D5D1EA"/>
<path d="M92.8161 59.5717L92.1875 59.1155V59.0678L92.8161 59.5241V59.5717Z" fill="#D5D1EA"/>
<path d="M92.4387 58.3748L92.4559 58.4381L92.4945 58.4743L92.4666 58.4935L92.4732 58.5541L92.4387 58.5027L92.4042 58.504L92.4107 58.453L92.3828 58.3932L92.4214 58.4131L92.4387 58.3748Z" fill="#DC9500"/>
<path d="M92.5871 58.4825L92.6044 58.5458L92.6429 58.582L92.615 58.6012L92.6216 58.6618L92.5871 58.6104L92.5526 58.6117L92.5592 58.5607L92.5312 58.5009L92.5698 58.5208L92.5871 58.4825Z" fill="#DC9500"/>
<path d="M92.7355 58.5902L92.7528 58.6535L92.7914 58.6897L92.7635 58.7089L92.77 58.7695L92.7355 58.7181L92.701 58.7194L92.7076 58.6684L92.6797 58.6086L92.7183 58.6285L92.7355 58.5902Z" fill="#DC9500"/>
<path d="M92.884 58.698L92.9012 58.7613L92.9398 58.7974L92.9119 58.8167L92.9185 58.8772L92.884 58.8259L92.8494 58.8271L92.856 58.7761L92.8281 58.7164L92.8667 58.7362L92.884 58.698Z" fill="#DC9500"/>
<path d="M93.0324 58.8057L93.0497 58.869L93.0883 58.9051L93.0603 58.9244L93.0669 58.985L93.0324 58.9336L92.9979 58.9348L93.0045 58.8838L92.9766 58.8241L93.0151 58.8439L93.0324 58.8057Z" fill="#DC9500"/>
<g opacity="0.911625">
<path d="M128.343 100.601C128.342 102.093 127.502 102.704 126.473 101.958L109.482 89.6241C108.454 88.878 107.613 87.0466 107.613 85.5543L107.614 45.8399C107.614 44.3477 108.455 43.7372 109.483 44.4833L126.474 56.8169C127.502 57.563 128.343 59.3944 128.343 60.8866L128.343 100.601Z" fill="black" fill-opacity="0.3"/>
<path d="M123.995 103.78C123.994 105.272 123.154 105.883 122.126 105.137L105.135 92.8031C104.107 92.057 103.265 90.2256 103.266 88.7333L103.266 49.0189C103.266 47.5267 104.107 46.9162 105.135 47.6623L122.126 59.9959C123.154 60.742 123.995 62.5734 123.995 64.0657L123.995 103.78Z" fill="#FAFAFA"/>
<path d="M122.353 90.2457L105.512 78.0215V77.2903L122.353 89.5147V90.2457Z" fill="#D5D1EA"/>
<path d="M122.353 92.292L105.512 80.0675V79.3365L122.353 91.5605V92.292Z" fill="#D5D1EA"/>
<path d="M122.353 94.338L105.512 82.114V81.3825L122.353 93.6068V94.338Z" fill="#D5D1EA"/>
<path d="M122.353 96.3842L105.512 84.16V83.4288L122.353 95.653V96.3842Z" fill="#D5D1EA"/>
<path d="M115.142 93.1963L105.512 86.2063V85.4751L115.142 92.4651V93.1963Z" fill="#D5D1EA"/>
<path d="M120.062 70.8039C120.062 65.6659 117.193 59.4191 113.654 56.85C110.115 54.2814 107.246 56.3638 107.246 61.5012C107.246 66.6389 110.115 72.887 113.654 75.4559C117.193 78.0244 120.062 75.9418 120.062 70.8039Z" fill="#372780"/>
<path d="M115.864 73.0428C115.552 72.2437 115.864 69.1605 115.864 69.1605L111.473 65.973C111.473 65.973 111.785 69.5099 111.473 69.8551C111.473 69.8551 112.396 72.32 113.521 73.1757C114.645 74.0304 115.864 73.0428 115.864 73.0428Z" fill="#FFAF73"/>
<path d="M111.045 62.7609C111.045 62.7609 110.956 62.2104 110.757 62.0278C110.558 61.8455 110.349 62.0585 110.485 63.1142C110.621 64.1699 110.757 64.4132 110.809 64.6867C110.862 64.9605 111.066 65.473 111.249 65.0435L111.045 62.7609Z" fill="#F1A983"/>
<path d="M111.045 62.7606C111.045 62.7606 110.956 62.2101 110.757 62.0275C110.558 61.8452 110.349 62.0582 110.485 63.1139C110.621 64.1696 110.757 64.413 110.809 64.6865C110.862 64.9602 111.066 65.4727 111.249 65.0432L111.045 62.7606Z" fill="#D78F69"/>
<path d="M111.045 62.7606C111.045 62.7606 110.956 62.2101 110.757 62.0275C110.558 61.8452 110.349 62.0582 110.485 63.1139C110.621 64.1696 110.757 64.413 110.809 64.6865C110.862 64.9602 111.066 65.4727 111.249 65.0432L111.045 62.7606Z" fill="#E49B6A"/>
<path d="M113.663 58.5663C114.647 59.2807 115.72 60.8568 116.15 62.5756C116.58 64.2949 116.41 65.2964 116.385 65.7769C116.36 66.2577 116.3 67.0334 116.215 67.6123C116.13 68.1913 116.105 69.2896 115.935 69.9112C115.765 70.5331 115.426 70.5393 114.991 70.6856C114.557 70.8323 113.882 70.5882 113.662 70.4292C113.443 70.2699 112.769 69.5344 112.334 68.757C111.899 67.9797 111.56 67.4802 111.39 66.6123C111.221 65.7443 111.195 64.6094 111.11 63.907C111.026 63.2048 110.966 62.3423 110.941 61.8254C110.916 61.3083 110.746 60.0605 111.175 58.9649C111.605 57.8693 112.678 57.852 113.663 58.5663Z" fill="#FFAF73"/>
<path d="M113.261 70.033C112.11 68.5313 111.972 66.7824 111.948 66.078C111.924 65.3732 111.523 64.5698 111.291 63.8912C111.058 63.2124 111.05 61.4081 111.05 61.4081L110.906 61.263C110.919 61.4922 110.936 61.6859 110.943 61.8257C110.968 62.3423 111.028 63.2051 111.113 63.9072C111.198 64.6097 111.223 65.7443 111.393 66.6125C111.562 67.4805 111.902 67.98 112.337 68.757C112.608 69.2419 112.971 69.7099 113.261 70.033Z" fill="#D78F69"/>
<path d="M114.993 70.6856C115.428 70.5393 115.768 70.5331 115.937 69.9112C116.107 69.2896 116.132 68.1913 116.217 67.6123C116.302 67.0334 116.362 66.2577 116.387 65.7769C116.393 65.645 116.411 65.473 116.425 65.2581L116.241 65.1759C116.241 65.1759 116.233 66.9691 116 67.3101C115.768 67.6509 115.366 67.872 115.343 68.5422C115.319 69.2115 115.18 70.7599 114.03 70.5917C114.01 70.5884 113.991 70.5863 113.973 70.5852C114.273 70.7008 114.692 70.7876 114.993 70.6856Z" fill="#E49B6A"/>
<path d="M113.576 66.7846C113.576 66.7846 113.383 66.3865 113.383 66.1659C113.383 65.9456 113.476 65.0725 113.495 64.3766C113.515 63.6801 113.381 63.6109 113.011 63.1351C112.641 62.66 111.862 61.929 111.577 61.6811C111.355 61.4876 111.367 60.1308 111.596 59.727C111.977 59.0552 112.755 60.2716 113.702 61.0985C115.103 62.3203 116.168 62.1721 116.168 62.1721L112.223 58.2285L111.696 58.0405L111.173 58.9722C110.747 60.0659 110.916 61.3094 110.941 61.8257C110.966 62.3423 111.026 63.2051 111.11 63.9072C111.195 64.6094 111.22 65.7443 111.39 66.6123C111.56 67.4802 111.899 67.98 112.334 68.757C112.767 69.5316 113.439 70.2653 113.66 70.4273C113.65 69.5824 113.608 67.6777 113.608 67.6777L113.576 66.7846Z" fill="#E49B6A"/>
<path d="M116.504 64.4355C116.621 63.5705 116.614 60.2526 113.662 58.1561C110.709 55.9668 110.702 59.2747 110.818 60.3082C110.891 60.9577 110.706 61.8572 110.794 62.0536C110.794 62.0536 110.919 62.1873 110.95 62.3727C110.98 62.5577 111.03 63.1166 111.03 63.1166C111.03 63.1166 111.13 61.792 111.178 61.4078C111.226 61.0237 111.258 60.9653 111.292 60.3258C111.326 59.6874 111.467 59.3466 111.819 59.3116C112.173 59.2766 113.175 60.4352 113.52 60.7556L113.809 60.9653C114.154 61.1458 115.157 61.4426 115.51 61.9901C115.862 62.5371 116.004 63.0824 116.037 63.7702C116.071 64.4594 116.103 64.5638 116.151 65.0177C116.199 65.4719 116.296 66.9389 116.296 66.9389C116.296 66.9389 116.342 66.4492 116.373 66.3087C116.403 66.1678 116.529 66.2167 116.529 66.2167C116.617 66.148 116.431 64.9787 116.504 64.4355Z" fill="#4B290D"/>
<path d="M111.047 69.2329V72.7546C111.844 73.8505 112.726 74.7803 113.656 75.4553C114.648 76.1754 115.587 76.5295 116.426 76.5542V73.1375L113.656 72.5107L111.047 69.2329Z" fill="#D5D1EA"/>
<path d="M113.666 72.5197L112.535 72.4969L113.337 74.6468L113.214 75.1124C113.359 75.2323 113.506 75.3482 113.653 75.4556C113.772 75.5413 113.889 75.6214 114.006 75.6968L113.941 75.0858L114.796 74.0686L113.666 72.5197Z" fill="black"/>
<path d="M113.665 72.5199L111.559 68.2627L110.691 69.1922L112.618 73.6603L113.665 72.5199Z" fill="#EFEBFF"/>
<path d="M113.656 72.511L115.763 71.312L116.63 73.5008L114.704 75.1718L113.656 72.511Z" fill="#EFEBFF"/>
<path d="M108.41 67.6875C109.158 69.7761 110.221 71.748 111.464 73.3076C110.927 70.4004 111.22 68.3948 111.22 68.3948L108.41 67.6875Z" fill="#868686"/>
<path d="M118.925 75.2673L115.983 71.8522C115.983 71.8522 116.282 74.3215 115.727 76.4595C117.035 76.7598 118.152 76.326 118.925 75.2673Z" fill="#868686"/>
<path d="M113.669 67.0529C113.811 67.1397 114.539 67.777 114.652 68.0777C114.766 68.3785 115.04 68.788 115.183 69.0343C115.327 69.2812 115.464 69.3138 115.707 69.0558C115.756 69.0047 115.905 68.4841 115.954 68.3007C116.001 68.117 116.271 66.4484 116.271 66.4484L116.35 66.5735C116.35 66.5735 116.121 67.8009 116.163 68.1417C116.204 68.4827 116.16 70.1109 115.74 70.5797C115.321 71.0489 115.609 72.4168 113.669 71.0087C111.729 69.6006 112.017 68.6509 111.598 67.573C111.178 66.4948 111.134 64.8026 111.175 64.5212C111.217 64.2407 110.988 62.6817 110.988 62.6817L111.067 62.6711C111.067 62.6711 111.337 64.7309 111.385 64.9841C111.433 65.2372 111.583 65.9758 111.631 66.0962C111.874 66.7083 112.011 66.8749 112.155 66.8364C112.298 66.7973 112.573 66.7867 112.686 66.6508C112.799 66.5149 113.528 66.934 113.669 67.0529Z" fill="#4B290D"/>
<path d="M113.56 68.556C113.888 68.7842 114.077 69.3461 114.21 69.4909C114.342 69.6356 114.576 69.6215 114.636 69.4622C114.695 69.3024 114.529 68.8726 114.383 68.6018C114.236 68.3311 113.745 67.9746 113.56 67.8215C113.376 67.707 112.885 67.3505 112.738 67.4086C112.592 67.4661 112.425 67.6549 112.485 67.9008C112.545 68.1474 112.778 68.5004 112.911 68.5487C113.044 68.5967 113.233 68.3083 113.56 68.556Z" fill="#E49B6A"/>
<path d="M109.383 74.8573L109.648 75.827L110.239 76.3813L109.811 76.676L109.912 77.6042L109.383 76.8168L108.854 76.8363L108.955 76.0549L108.527 75.139L109.118 75.4434L109.383 74.8573Z" fill="#DC9500"/>
<path d="M111.656 76.5078L111.921 77.4775L112.512 78.0315L112.084 78.3264L112.185 79.2546L111.656 78.4672L111.127 78.4868L111.228 77.7051L110.801 76.7894L111.392 77.0938L111.656 76.5078Z" fill="#DC9500"/>
<path d="M113.93 78.1582L114.194 79.1279L114.785 79.6822L114.357 79.9768L114.459 80.905L113.93 80.1177L113.401 80.1372L113.502 79.3558L113.074 78.4401L113.666 78.7442L113.93 78.1582Z" fill="#DC9500"/>
<path d="M116.207 79.8086L116.472 80.7783L117.063 81.3323L116.634 81.627L116.736 82.5554L116.207 81.7678L115.678 81.7873L115.779 81.0059L115.352 80.09L115.942 80.3944L116.207 79.8086Z" fill="#DC9500"/>
<path d="M118.481 81.459L118.745 82.4287L119.336 82.9828L118.908 83.2777L119.009 84.2059L118.481 83.418L117.952 83.438L118.053 82.6566L117.625 81.7407L118.216 82.0451L118.481 81.459Z" fill="#DC9500"/>
<path d="M116.315 66.4232C116.315 66.4232 116.406 65.9972 116.607 66.1044C116.808 66.2123 117.019 66.7341 116.881 67.602C116.744 68.4703 116.606 68.5164 116.553 68.7163C116.501 68.916 116.294 69.1347 116.109 68.4317L116.315 66.4232Z" fill="#FFAF73"/>
</g>
<path d="M55.6675 107.935C55.2728 110.417 54.8606 115.577 54.5175 117.843C54.1735 120.109 54.0365 121.857 54.1912 123.303C54.3455 124.75 54.8554 126.658 54.8554 126.658C54.8554 126.658 55.4957 127.796 54.965 128.111C54.4342 128.425 53.997 127.815 53.4819 126.874C52.9665 125.932 51.3194 124.057 51.0147 123.674C51.1819 123.464 51.3241 123.347 51.3934 122.267C51.4618 121.188 50.7061 116.353 50.4829 114.411C50.2594 112.468 51.53 108.432 51.8047 107.228C52.0792 106.024 51.6679 104.244 51.2557 102.452C50.8438 100.661 50.6541 95.0489 50.6541 95.0489C50.6541 95.0489 49.8131 88.8105 50.4482 87.0404C51.0835 85.2706 56.3196 86.0908 57.0924 87.2604C57.8649 88.4298 57.9683 93.0628 57.6931 96.387C57.4187 99.7109 56.0626 105.453 55.6675 107.935Z" fill="#FFAF73"/>
<path d="M45.8652 117.628L45.7403 119.278C45.7403 119.278 46.3805 119.356 46.2239 120.004C46.0678 120.652 45.5527 120.22 45.4744 119.689C45.3965 119.16 44.9908 118.787 44.7098 118.591C44.4291 118.394 43.2422 117.628 43.2422 117.628C43.2422 117.628 43.5864 116.76 43.7156 116.079C43.8445 115.397 43.4524 111.365 43.2989 108.928C43.1455 106.492 44.8719 103.284 45.4668 101.306C46.0616 99.3284 45.2172 94.8657 44.9871 90.7406C44.7569 86.6158 45.985 84.2759 45.985 84.2759L51.2226 87.0987V91.1991C51.2226 91.1991 50.6561 95.0483 50.0905 98.3633C49.5247 101.678 48.3065 104.49 47.9418 105.6C47.5775 106.71 46.5219 111.775 46.2232 113.584C45.9239 115.393 45.8652 117.628 45.8652 117.628Z" fill="#FFAF73"/>
<path d="M52.5388 113.946C53.0662 111.498 53.8368 106.372 53.2894 102.904C52.7417 99.435 54.0211 86.0797 54.0211 86.0797H54.0222C55.4033 86.2457 56.733 86.7151 57.0926 87.2602C57.8651 88.4295 57.9685 93.0623 57.6933 96.3867C57.4188 99.7107 56.0626 105.453 55.6674 107.935C55.2727 110.417 54.8606 115.576 54.5175 117.843C54.1735 120.109 54.0367 121.857 54.1914 123.303C54.3457 124.75 54.8556 126.658 54.8556 126.658C54.8556 126.658 55.4957 127.796 54.965 128.11C54.4342 128.424 53.9972 127.815 53.4821 126.873C53.2872 126.517 52.9311 126.029 52.5468 125.537C52.5744 125.394 52.6111 125.23 52.6605 125.039C52.9445 123.942 52.6402 123.33 52.6605 123.126C52.6808 122.922 52.0116 116.394 52.5388 113.946Z" fill="#CD7A38"/>
<path d="M44.8675 112.788C45.0199 109.341 45.4111 106.413 45.7814 105.291C46.1513 104.17 47.1955 102.446 47.3263 99.6824C47.4189 97.7195 47.7387 89.7631 47.9161 85.3173L51.2223 87.0987V91.1994C51.2223 91.1994 50.6558 95.0486 50.0902 98.3636C49.5244 101.678 48.306 104.49 47.9413 105.6C47.5771 106.71 46.5214 111.775 46.2227 113.584C45.9236 115.393 45.8647 117.628 45.8647 117.628L45.74 119.278C45.74 119.278 46.3803 119.356 46.2236 120.004C46.0678 120.651 45.5525 120.22 45.4743 119.689C45.3962 119.16 44.9903 118.787 44.7093 118.591C44.5876 118.505 44.2959 118.313 44.0039 118.123C44.3054 117.042 44.767 115.065 44.8675 112.788Z" fill="#CD7A38"/>
<path d="M51.1593 63.5171L51.2013 63.5974L52.9044 64.6979L53.3617 66.4517L50.6172 64.8943L51.1593 63.5171Z" fill="white"/>
<path d="M59.2305 79.3076L55.3164 76.9555L56.1796 75.0197L59.2305 79.3076Z" fill="#333333"/>
<path d="M60.5328 74.9418C60.5328 74.9418 60.6217 73.2276 60.5328 73.1161C60.4441 73.0046 58.4258 72.4484 58.4258 72.4484L60.5328 74.9418Z" fill="#FFAF73"/>
<path d="M60.5012 73.0938C60.5167 73.1023 60.5284 73.1101 60.5327 73.1161C60.6218 73.2273 60.5327 74.9421 60.5327 74.9421L59.8281 74.1083C60.062 73.7323 60.2964 73.3877 60.5012 73.0938Z" fill="#CD7A38"/>
<path d="M51.0167 123.674C51.0167 123.674 50.0492 124.243 49.8069 125.195C49.5648 126.147 50.1114 126.952 50.2985 127.836C50.4858 128.718 50.4856 131.035 50.4856 131.035L50.8138 130.917C50.8138 130.917 50.7827 128.758 51.0167 128.267C51.251 127.776 51.844 127.796 52.3281 128.267C52.8119 128.739 54.202 130.446 54.9977 130.446C55.7944 130.446 58.3544 127.718 58.2299 126.952C58.1052 126.186 54.8572 126.658 54.8572 126.658C54.8572 126.658 55.4975 127.796 54.9668 128.111C54.436 128.424 53.9988 127.815 53.4839 126.873C52.9685 125.931 51.3211 124.057 51.0167 123.674Z" fill="#1E1E1E"/>
<path d="M43.2397 117.628C43.2397 117.628 44.4266 118.394 44.7071 118.591C44.9883 118.787 45.394 119.16 45.4719 119.689C45.5502 120.22 46.0651 120.652 46.2211 120.004C46.3776 119.356 45.7375 119.278 45.7375 119.278L45.8625 117.628C45.8625 117.628 46.6588 117.236 46.7997 117.354C46.9397 117.472 46.8774 120.907 46.3152 121.613C45.5347 122.595 44.3635 121.436 44.0515 121.456C44.0515 121.456 43.4112 121.614 43.1618 122.575C42.9119 123.537 42.7712 124.322 42.7712 124.322L42.4591 124.204C42.4591 124.204 42.8651 122.3 42.662 121.476C42.4591 120.652 42.1311 119.965 42.2405 119.297C42.3497 118.63 43.2397 117.628 43.2397 117.628Z" fill="#1E1E1E"/>
<path d="M57.5385 88.1561C57.5385 88.1561 57.8803 89.708 57.9658 93.9034C58.0514 98.0982 56.5374 103.658 56.5374 103.658C56.5374 103.658 55.1173 104.769 52.8507 104.412C51.7959 104.247 46.109 101.272 45.4854 99.2983C45.4854 99.2983 44.7773 91.1633 44.7773 88.5988C44.7773 86.0343 46.4206 82.8287 46.4206 82.8287C46.4206 82.8287 56.5314 82.7628 57.5385 88.1561Z" fill="#4B4B4B"/>
<path d="M57.5385 88.1563C57.5385 88.1563 57.8803 89.708 57.9658 93.9034C58.0514 98.0982 56.5374 103.658 56.5374 103.658C56.5374 103.658 55.4889 104.476 53.7569 104.482C53.9724 100.895 53.762 96.2953 53.5311 95.1004C53.2454 93.6269 50.68 93.1488 48.0827 92.034C46.5238 91.3647 45.4221 90.1511 44.7896 89.2872C44.7817 89.0286 44.7773 88.7969 44.7773 88.5988C44.7773 86.0343 46.4206 82.8287 46.4206 82.8287C46.4206 82.8287 56.5314 82.7631 57.5385 88.1563Z" fill="#2C2C2C"/>
<path d="M55.8055 68.4025C55.8055 68.4025 57.0492 72.8741 56.9244 74.3126C56.8001 75.7509 56.1622 78.9714 56.3694 80.3785C56.5761 81.7855 57.8944 89.3523 58.1187 91.1343C58.1187 91.1343 57.561 92.4109 54.0218 92.6925C50.4833 92.9738 45.8538 90.3027 44.5606 88.2076C44.5606 88.2076 45.4596 84.4124 46.2054 82.6298C46.9516 80.8476 48.394 78.8154 47.9961 77.1894C47.5983 75.5636 44.042 68.1529 43.9423 66.3394C43.8428 64.5256 44.3405 62.9623 45.1111 62.5559C45.8823 62.1494 48.676 62.7745 48.676 62.7745C48.676 62.7745 50.511 63.5955 52.4946 65.0761C53.7874 66.0412 55.3439 67.5386 55.8055 68.4025Z" fill="#797979"/>
<path d="M52.1502 74.031C52.1985 72.0873 54.3908 70.1305 55.9597 68.9761C56.2888 70.2293 57.0222 73.1915 56.9251 74.3123C56.8011 75.7506 56.1632 78.9711 56.3703 80.3782C56.5771 81.7852 57.8951 89.3523 58.1194 91.1343C58.1194 91.1343 57.5617 92.4109 54.0227 92.6925C53.593 92.7267 53.1446 92.7261 52.6867 92.6963C54.24 85.973 52.0783 76.9533 52.1502 74.031Z" fill="#4B4B4B"/>
<path d="M53.917 66.8704C54.4075 66.7086 56.3916 68.2307 57.4114 70.169C58.4311 72.1079 61.3284 75.4676 61.701 76.4381C62.0741 77.4081 62.1415 79.4565 61.5025 79.9717C60.5733 80.7217 58.6031 78.8648 57.5584 77.7391C56.5137 76.6134 53.7178 73.9371 52.8473 71.3417C51.977 68.7468 52.8728 67.2144 53.917 66.8704Z" fill="#797979"/>
<path d="M50.9834 67.12C50.9834 67.12 50.8567 64.5557 51.161 63.6075C51.4644 62.6584 51.7283 62.5019 52.071 62.4017C52.3366 62.3239 52.8813 62.5152 53.4965 60.9719C54.1118 59.4289 53.88 58.771 53.9838 58.1136C54.0872 57.4567 54.2449 56.9971 54.1562 56.3611C54.0678 55.7249 53.8996 53.3547 52.416 52.5467C50.9327 51.7381 49.1206 51.8779 48.1297 52.5979C47.1385 53.318 46.3578 54.9964 46.3653 56.7423C46.372 58.4883 47.1295 59.5776 47.1411 60.7671C47.1532 61.9565 46.5703 63.4184 46.0043 64.3392C45.4374 65.2606 46.6163 66.5581 47.4219 67.0299C49.2225 68.084 50.9834 67.12 50.9834 67.12Z" fill="#FFAF73"/>
<path d="M52.0062 60.856C51.9251 59.6587 51.9613 58.4682 51.9613 58.4682L50.2447 60.0917C50.2447 60.0917 50.3755 64.4928 49.3716 66.4042C49.1668 66.7938 49.1547 67.1693 49.2624 67.5221C50.2572 67.5155 50.9821 67.12 50.9821 67.12C50.9821 67.12 50.8554 64.5557 51.1597 63.6075C51.4631 62.6587 51.7268 62.5016 52.0695 62.4015C52.1992 62.3632 52.3951 62.389 52.6323 62.2471C52.3554 61.953 52.0494 61.4917 52.0062 60.856Z" fill="#CD7A38"/>
<path d="M52.38 66.7043C51.9581 63.2469 51.0341 60.7326 52.0088 59.4967L52.2369 59.0721C52.2574 59.0667 52.3642 59.5491 52.6737 59.4438C52.8291 59.3909 53.0321 58.3407 53.2143 57.7402C53.2583 57.5959 53.3206 57.4087 53.3919 57.206C53.3919 57.206 52.5876 58.2528 52.1692 58.6383L52.0874 58.5273C52.0874 58.5273 53.5334 57.0088 54.0315 55.7672C54.0315 55.7672 53.0021 57.3802 52.3657 57.8325C51.7294 58.2848 50.9723 58.7959 51.2507 61.1572C51.4708 63.0263 52.3463 66.1476 52.2894 68.2527C52.4014 67.7397 52.4424 67.2141 52.38 66.7043Z" fill="#6C2C3C"/>
<path d="M53.4743 52.7149C52.896 51.8312 51.8921 50.8536 49.6102 51.1578C48.5101 51.3043 47.6228 52.3662 47.1821 53.1262C46.6888 53.9776 46.2395 55.1985 46.3541 57.6447C46.4691 60.0909 46.3657 62.1597 45.1057 63.7372C44.4041 64.6152 44.0615 67.1018 44.7024 68.6071C44.4846 67.7692 44.3651 66.6272 44.766 65.4269C44.7738 65.4031 44.7783 65.3898 44.7783 65.3898C44.7738 65.402 44.7701 65.4145 44.766 65.4269C44.6871 65.6847 44.2466 67.3007 44.9853 69.1128C45.1158 69.2919 45.2676 69.4446 45.4454 69.5599C47.0975 70.6316 49.2251 71.432 49.6989 71.375C50.0712 71.3305 50.5744 71.0074 51.0462 70.4973C50.7624 70.9428 50.5017 71.2185 50.5017 71.2185C51.4909 70.6767 52.0052 69.2539 52.2175 68.4917C52.0977 69.415 51.8194 70.1886 51.8194 70.1886C51.8194 70.1886 52.4698 68.8621 52.5108 67.8007C52.552 66.739 52.128 65.0056 52.128 65.0056V65.0064C51.6946 62.4205 51.2 60.5202 52.0071 59.4965L52.2352 59.0719C52.2557 59.0664 52.3625 59.5488 52.672 59.4436C52.8273 59.3907 53.0304 58.3407 53.2125 57.7402C53.2566 57.5959 53.3189 57.4087 53.3901 57.206C55.3308 55.179 53.4743 52.7149 53.4743 52.7149Z" fill="#CD7420"/>
<path d="M53.9061 55.9845C53.4847 56.8755 52.7417 57.0953 51.8757 58.126C51.0095 59.1571 51.0267 61.6217 51.558 63.8669C52.0889 66.112 52.0339 67.9426 52.0339 67.9426C51.9652 66.0005 51.3068 64.3723 51.3068 64.3723C51.3068 64.3723 51.9795 66.7312 51.6172 68.3338C51.2546 69.9362 50.1144 70.6802 50.1144 70.6802C50.5442 70.1074 50.924 68.9622 50.924 68.9622C50.2186 70.3885 49.355 70.7353 49.355 70.7353C51.5231 67.8086 50.7777 64.4068 50.7777 64.4068C50.8845 70.2651 47.9568 70.4892 47.9568 70.4892L48.1938 69.9153C48.0319 70.1351 47.6463 70.5065 47.3817 70.2827C47.1174 70.0591 46.9206 69.3024 46.9206 69.3024L46.8962 70.1134C46.6115 69.9132 46.2563 69.0596 46.2563 69.0596L46.2358 69.7412C45.2868 67.9974 46.1051 64.3522 46.1051 64.3522C45.1316 67.1859 45.7171 69.4077 45.7171 69.4077C44.968 68.5438 45.0263 66.5979 45.0263 66.5979C44.8472 67.4013 44.9831 68.0251 44.9831 68.0251C44.8297 67.547 44.5999 66.2859 45.4672 64.3943C46.3347 62.5032 46.4395 61.275 46.4395 61.275C46.2328 62.0607 45.9678 62.6164 45.9678 62.6164C46.6394 60.716 46.3897 58.9997 46.3897 58.9997C46.3878 60.8604 46.1258 62.4598 45.1057 63.7372C44.4041 64.6152 44.0615 67.1018 44.7024 68.6071C44.4846 67.7692 44.3651 66.6275 44.7663 65.4269C44.7738 65.4033 44.7783 65.3898 44.7783 65.3898C44.7738 65.402 44.7701 65.4145 44.7663 65.4269C44.6871 65.6847 44.2466 67.3009 44.9853 69.1131C45.1158 69.2921 45.2676 69.4443 45.4454 69.5599C47.0975 70.6314 49.2251 71.432 49.6989 71.375C50.0712 71.3305 50.5744 71.0074 51.0462 70.4971C50.7624 70.9428 50.5017 71.2182 50.5017 71.2182C51.4909 70.6764 52.0052 69.2541 52.2175 68.492C52.0977 69.4153 51.8194 70.1888 51.8194 70.1888C51.8194 70.1888 52.4698 68.8621 52.5108 67.801C52.552 66.7393 52.128 65.0059 52.128 65.0059V65.0067C51.6946 62.4207 51.2 60.5202 52.0071 59.4965L52.2352 59.0719C52.2557 59.0667 52.3625 59.5491 52.672 59.4438C52.8273 59.3909 53.0304 58.3407 53.2125 57.7402C53.2566 57.5956 53.3189 57.409 53.3901 57.2063L52.7734 57.5799C53.5153 56.935 53.9061 55.9845 53.9061 55.9845Z" fill="#B0631D"/>
<path d="M52.1847 60.9906C52.1293 61.1024 51.4911 61.1702 51.598 59.7876C51.7046 58.4055 52.4415 58.0818 52.4236 59.093C52.4057 60.1037 52.1847 60.9906 52.1847 60.9906Z" fill="#FFAF73"/>
<path d="M49.6101 51.1578C48.51 51.3046 47.6227 52.3665 47.182 53.1262C46.6887 53.9776 46.2394 55.1988 46.354 57.645C46.3769 58.125 46.3909 58.59 46.3892 59.0401C46.4994 59.503 46.5881 59.8888 46.6205 60.13C46.7489 61.0929 46.4315 63.3543 46.4315 63.3543C46.6468 62.7376 46.7839 61.2269 46.7839 61.2269C46.9416 62.0922 46.4874 64.9844 46.4874 64.9844C46.9565 63.9694 47.3812 61.5167 47.2862 58.1217C47.1913 54.7267 48.9669 52.5784 49.6483 52.035C50.8408 51.0843 52.1238 51.4633 52.1255 51.4638C51.523 51.1651 50.7172 51.0102 49.6101 51.1578Z" fill="#B0631D"/>
<path d="M49.0006 54.4985C49.0006 54.4985 48.8802 54.6312 48.7164 54.9123C48.5531 55.1928 48.3468 55.6267 48.2024 56.1978C48.1301 56.4824 48.0732 56.8001 48.0421 57.1412C48.0082 57.4819 48.0121 57.845 48.0164 58.2234C48.0261 58.9802 48.0479 59.7914 48.0442 60.6086C48.0436 62.2409 47.9322 63.8647 47.6571 65.0257C47.5244 65.6063 47.3545 66.0643 47.2091 66.363C47.0645 66.6622 46.9553 66.8082 46.9571 66.8098C46.9553 66.8085 47.0628 66.6541 47.2003 66.3453C47.3384 66.0377 47.4961 65.5705 47.6154 64.9855C47.7374 64.4016 47.8235 63.7046 47.8748 62.9563C47.9268 62.2072 47.945 61.4063 47.9476 60.6081C47.951 59.8096 47.9359 59.0078 47.9346 58.2525C47.935 57.8759 47.9348 57.5069 47.9732 57.1602C48.0093 56.8134 48.0714 56.4908 48.1504 56.2024C48.3064 55.6234 48.5263 55.1877 48.6998 54.9088C48.8746 54.6279 49.0006 54.4985 49.0006 54.4985Z" fill="#B0631D"/>
<path d="M48.3125 68.2223C48.311 68.2223 48.5598 67.5394 48.8201 66.4588C48.948 65.9186 49.0792 65.278 49.1558 64.5766C49.193 64.2264 49.2167 63.8603 49.2098 63.4897C49.2003 63.1205 49.1681 62.7368 49.1468 62.3559C49.0473 60.8295 48.9744 59.3125 49.0365 58.1811C49.0654 57.616 49.1297 57.149 49.2104 56.8359C49.2894 56.5207 49.3816 56.3676 49.379 56.3674C49.3809 56.3676 49.2927 56.5283 49.223 56.8495C49.1509 57.1688 49.0991 57.6407 49.0835 58.2072C49.0479 59.3424 49.1466 60.8503 49.243 62.3461C49.2648 62.7219 49.294 63.0936 49.3028 63.4697C49.3078 63.8449 49.281 64.2128 49.2396 64.5652C49.1554 65.2704 49.0126 65.9129 48.8721 66.4544C48.5866 67.5386 48.311 68.2223 48.3125 68.2223Z" fill="#B0631D"/>
<path d="M51.9114 52.7008C51.9142 52.7002 51.56 52.6959 51.0838 52.9447C50.8468 53.0673 50.5838 53.2532 50.3319 53.5042C50.079 53.754 49.8393 54.0682 49.6306 54.4158C49.21 55.1117 48.9301 55.9129 48.759 56.5215C48.5868 57.1322 48.5098 57.5519 48.5078 57.5509C48.5098 57.5517 48.5646 57.1176 48.7165 56.4895C48.8669 55.8643 49.1312 55.0401 49.5531 54.3423C49.762 53.9942 50.0098 53.6792 50.272 53.432C50.5341 53.1835 50.8099 53.0049 51.0566 52.8929C51.5531 52.6644 51.9148 52.7002 51.9114 52.7008Z" fill="#B0631D"/>
<path d="M52.7323 53.9526C52.7323 53.9526 52.566 54.015 52.3025 54.1979C52.0398 54.3805 51.6782 54.6893 51.3366 55.1776C50.993 55.6619 50.6846 56.3337 50.5118 57.1205C50.4246 57.5129 50.3685 57.9302 50.3413 58.3594C50.3126 58.7905 50.2943 59.2298 50.2878 59.6712C50.2716 60.5541 50.3165 61.4312 50.3221 62.2552C50.3303 63.0798 50.2688 63.8473 50.1631 64.4882C50.0586 65.1298 49.9291 65.6486 49.834 66.0081C49.7377 66.3673 49.6749 66.5681 49.6758 66.5684C49.6749 66.5681 49.7334 66.3605 49.8219 65.9926C49.9097 65.625 50.0288 65.0962 50.1193 64.4502C50.212 63.8053 50.2587 63.0423 50.2399 62.2265C50.2239 61.4112 50.1749 60.5397 50.1911 59.6688C50.1974 59.2338 50.2168 58.7981 50.2477 58.37C50.2766 57.9405 50.3355 57.518 50.4272 57.1216C50.6067 56.3256 50.9296 55.6435 51.2859 55.1573C51.6415 54.6662 52.0165 54.3626 52.2878 54.186C52.561 54.0091 52.7328 53.9529 52.7323 53.9526Z" fill="#B0631D"/>
<path d="M29.1895 73.0624L10.9635 86.2926L10.8398 86.5311L10.8403 55.6665L10.9635 55.4278L29.1893 42.1983L29.1895 73.0624Z" fill="#4E6613"/>
<path d="M33.2183 45.9781L15.5805 59.8885L10.9648 56.341L29.191 43.1119L33.2183 45.9781Z" fill="#D5D1EA"/>
<path d="M15.2861 58.7558L15.0828 58.746L10.8407 55.6665L10.8398 86.5311L15.0828 89.6103L15.2866 89.6203L15.2861 58.7558ZM12.9616 81.0464C12.4346 80.6641 12.0062 79.7305 12.0062 78.966C12.0062 78.2014 12.4346 77.8905 12.9616 78.2725C13.4883 78.655 13.9169 79.5881 13.9169 80.3529C13.9169 81.1178 13.4883 81.4287 12.9616 81.0464Z" fill="#80AF20"/>
<path d="M33.5114 76.3909L15.2852 89.6206V58.756L33.5111 45.5266L33.5114 76.3909Z" fill="#80AF20"/>
<path d="M15.8832 89.1887L15.9726 89.1241L15.9722 58.259L15.8828 58.3241L15.8832 89.1887Z" fill="#4E6613"/>
<path d="M15.2855 58.756L15.0822 58.7463L15.082 89.6108L15.2857 89.6206L15.2855 58.756Z" fill="#4E6613"/>
<path d="M14.5312 75.1417C14.5312 75.4559 14.354 75.5845 14.1374 75.4274L11.8352 73.7561C11.6186 73.5988 11.4414 73.2135 11.4414 72.8988L11.4421 58.4318C11.4421 58.1174 11.619 57.9888 11.8355 58.1459L14.1376 59.8169C14.3542 59.9743 14.5316 60.3598 14.5316 60.674L14.5312 75.1417Z" fill="black"/>
<path d="M14.488 75.1154C14.488 75.4299 14.3108 75.5585 14.0942 75.4011L11.7918 73.7301C11.5754 73.573 11.3984 73.1874 11.3984 72.8727L11.3987 58.4058C11.3987 58.0913 11.5758 57.963 11.7923 58.1201L14.0946 59.7911C14.3108 59.9479 14.4882 60.3338 14.4882 60.6482L14.488 75.1154Z" fill="#FAFAFA"/>
<path d="M13.011 77.9369C12.6678 77.6872 12.3597 77.6794 12.1445 77.8641C12.3547 77.7163 12.6428 77.7391 12.9611 77.97C13.6037 78.4366 14.1249 79.5713 14.1249 80.5043C14.1249 81.1767 13.8539 81.5587 13.4618 81.5465C13.8873 81.598 14.1866 81.2068 14.1866 80.4965C14.1866 79.5542 13.6599 78.4084 13.011 77.9369Z" fill="black"/>
<path d="M12.9629 78.2728C12.436 77.8907 12.0078 78.2014 12.0078 78.9662C12.0078 79.7308 12.436 80.6641 12.9629 81.0467C13.4897 81.429 13.9183 81.1178 13.9183 80.3532C13.9183 79.5884 13.4897 78.655 12.9629 78.2728Z" fill="black" fill-opacity="0.3"/>
<path d="M12.9605 77.97C12.3182 77.5038 11.7971 77.8821 11.7969 78.8149C11.7969 79.7479 12.3182 80.8828 12.9609 81.3492C13.6037 81.8156 14.1245 81.4371 14.1245 80.5043C14.1245 79.5716 13.6031 78.4366 12.9605 77.97ZM12.9609 81.0467C12.4339 80.6644 12.0056 79.7308 12.0056 78.9662C12.0056 78.2017 12.4339 77.8907 12.9609 78.2728C13.4876 78.6553 13.9162 79.5884 13.9162 80.3532C13.9162 81.1181 13.4876 81.429 12.9609 81.0467Z" fill="#D5D1EA"/>
<path d="M14.1245 60.9345L11.7969 59.2452V58.8431L14.1245 60.5324V60.9345Z" fill="#D5D1EA"/>
<path d="M14.1245 75.0055L11.7969 73.3166V72.9142L14.1245 74.6035V75.0055Z" fill="#D5D1EA"/>
<path d="M14.0671 62.6969L11.7969 61.0492V60.9893L14.0671 62.6364V62.6969Z" fill="#D5D1EA"/>
<path d="M14.0671 64.2785L11.7969 62.6307V62.5702L14.0668 64.2182L14.0671 64.2785Z" fill="#D5D1EA"/>
<path d="M14.0666 65.8605L11.7969 64.2133V64.1523L14.0671 65.7997L14.0666 65.8605Z" fill="#D5D1EA"/>
<path d="M14.0666 67.442L11.7969 65.7943V65.7338L14.0671 67.3812L14.0666 67.442Z" fill="#D5D1EA"/>
<path d="M14.0671 69.0238L11.7969 67.3758V67.315L14.0671 68.9628V69.0238Z" fill="#D5D1EA"/>
<path d="M14.0666 70.605L11.7969 68.9573V68.8968L14.0666 70.5443V70.605Z" fill="#D5D1EA"/>
<path d="M14.0666 72.1863L11.7969 70.5391V70.4786L14.0666 72.1263V72.1863Z" fill="#D5D1EA"/>
<path d="M14.0666 73.7678L11.7969 72.1209V72.0601L14.0666 73.7076V73.7678Z" fill="#D5D1EA"/>
<path d="M34.0413 76.7043L15.8153 89.934L15.6914 90.1728L15.6921 59.3079L15.8151 59.0692L34.041 45.84L34.0413 76.7043Z" fill="#5686C2"/>
<path d="M38.0698 49.6197L20.4321 63.5302L15.8164 59.9824L34.0426 46.7529L38.0698 49.6197Z" fill="#D5D1EA"/>
<path d="M20.1375 62.3971L19.9342 62.3876L15.6921 59.3076L15.6914 90.1728L19.934 93.2519L20.1377 93.262L20.1375 62.3971ZM17.8129 84.6878C17.2859 84.3055 16.8578 83.3719 16.8578 82.6073C16.8578 81.8428 17.2859 81.5318 17.8129 81.9141C18.3397 82.2967 18.768 83.2295 18.768 83.9943C18.768 84.7592 18.3397 85.0701 17.8129 84.6878Z" fill="#5686C2"/>
<path d="M38.3668 80.032L20.1406 93.2617V62.3971L38.3666 49.1677L38.3668 80.032Z" fill="#396C9E"/>
<path d="M20.7344 92.83L20.8237 92.7655L20.8235 61.9004L20.7344 61.9655V92.83Z" fill="#244662"/>
<path d="M20.1371 62.3971L19.9338 62.3874L19.9336 93.2522L20.1373 93.2617L20.1371 62.3971Z" fill="#244662"/>
<path d="M19.383 78.7831C19.383 79.0973 19.2054 79.2259 18.9889 79.0691L16.6868 77.3975C16.4701 77.2401 16.293 76.8548 16.293 76.5401L16.2934 62.0732C16.2934 61.7587 16.4704 61.6304 16.6868 61.7872L18.9894 63.4585C19.2058 63.6156 19.3832 64.0012 19.3832 64.3154L19.383 78.7831Z" fill="black"/>
<path d="M19.3433 78.7568C19.3433 79.0715 19.1663 79.1998 18.9496 79.0425L16.6475 77.3714C16.4309 77.2143 16.2539 76.8288 16.2539 76.5141L16.2541 62.0471C16.2541 61.7327 16.4313 61.6043 16.6477 61.7614L18.9501 63.4325C19.1663 63.5893 19.3437 63.9751 19.3437 64.2896L19.3433 78.7568Z" fill="#FAFAFA"/>
<path d="M17.8627 81.5782C17.5194 81.3289 17.2112 81.3207 16.9961 81.5055C17.2065 81.3576 17.4946 81.3804 17.8129 81.6116C18.4555 82.0783 18.9767 83.2126 18.9767 84.146C18.9767 84.818 18.7056 85.2003 18.3133 85.1878C18.7389 85.2397 19.0384 84.8481 19.0384 84.1378C19.0384 83.1955 18.5116 82.0498 17.8627 81.5782Z" fill="black"/>
<path d="M17.8145 81.9141C17.2875 81.5318 16.8594 81.8428 16.8594 82.6076C16.8594 83.3722 17.2875 84.3055 17.8145 84.6881C18.3413 85.0703 18.7698 84.7591 18.7698 83.9946C18.7698 83.2297 18.3413 82.2964 17.8145 81.9141Z" fill="black" fill-opacity="0.5"/>
<path d="M17.812 81.6116C17.1698 81.1452 16.6489 81.5234 16.6484 82.4565C16.6484 83.3893 17.1696 84.5242 17.8122 84.9906C18.4551 85.457 18.976 85.0785 18.976 84.146C18.976 83.2129 18.4549 82.0783 17.812 81.6116ZM17.8122 84.6881C17.2853 84.3058 16.8571 83.3722 16.8571 82.6076C16.8571 81.843 17.2853 81.5318 17.8122 81.9141C18.339 82.2967 18.7676 83.2297 18.7676 83.9946C18.7676 84.7594 18.339 85.0703 17.8122 84.6881Z" fill="#D5D1EA"/>
<path d="M18.976 64.5758L16.6484 62.8866V62.4845L18.976 64.1737V64.5758Z" fill="#D5D1EA"/>
<path d="M18.976 78.6466L16.6484 76.9577V76.5553L18.976 78.2445V78.6466Z" fill="#D5D1EA"/>
<path d="M18.9186 66.3383L16.6484 64.6906V64.6306L18.9186 66.2778V66.3383Z" fill="#D5D1EA"/>
<path d="M18.9186 67.9201L16.6484 66.2721V66.2119L18.9186 67.8596V67.9201Z" fill="#D5D1EA"/>
<path d="M18.9182 69.5019L16.6484 67.8544V67.7936L18.9182 69.4411V69.5019Z" fill="#D5D1EA"/>
<path d="M18.9182 71.0834L16.6484 69.4354V69.3752L18.9182 71.0226V71.0834Z" fill="#D5D1EA"/>
<path d="M18.9186 72.6652L16.6484 71.0172V70.9564L18.9186 72.6041V72.6652Z" fill="#D5D1EA"/>
<path d="M18.9182 74.2467L16.6484 72.5992V72.5385L18.9182 74.1859V74.2467Z" fill="#D5D1EA"/>
<path d="M18.9182 75.8279L16.6484 74.1802V74.1197L18.9182 75.7674V75.8279Z" fill="#D5D1EA"/>
<path d="M18.9182 77.4092L16.6484 75.7623V75.7015L18.9182 77.3486V77.4092Z" fill="#D5D1EA"/>
</g>
</svg>
